<svg id="svg" version="1.1" xmlns="http://www.w3.org/2000/svg" xmlns:xlink="http://www.w3.org/1999/xlink" width="400" height="408.2474226804124" viewBox="0, 0, 400,408.2474226804124"><g id="svgg"><path id="path0" d="M112.400 72.000 C 111.915 72.314,111.972 72.389,112.700 72.394 C 113.195 72.397,113.600 72.220,113.600 72.000 C 113.600 71.499,113.176 71.499,112.400 72.000 M105.948 75.089 C 105.149 75.173,104.159 75.603,103.748 76.044 C 101.573 78.374,100.902 78.872,99.078 79.507 C 97.709 79.984,96.825 80.604,96.244 81.496 C 95.780 82.208,94.814 83.072,94.097 83.416 C 93.380 83.759,91.291 85.544,89.454 87.381 C 87.617 89.218,85.540 91.017,84.840 91.380 C 84.139 91.742,83.383 92.525,83.159 93.119 C 82.935 93.714,81.963 95.010,80.999 96.000 C 77.550 99.543,76.007 101.295,75.235 102.544 C 74.804 103.241,73.900 104.220,73.226 104.718 C 72.551 105.216,72.000 105.886,72.000 106.207 C 72.000 106.528,71.084 107.647,69.965 108.695 C 68.846 109.743,67.405 111.631,66.763 112.892 C 66.122 114.152,65.160 115.470,64.627 115.819 C 64.093 116.169,63.378 117.273,63.037 118.273 C 62.696 119.274,61.708 120.862,60.841 121.802 C 59.973 122.743,58.934 124.459,58.532 125.616 C 58.129 126.773,57.305 128.219,56.700 128.829 C 56.095 129.439,55.600 130.126,55.600 130.355 C 55.600 130.935,54.457 134.404,53.894 135.534 C 53.638 136.048,52.966 136.707,52.400 137.000 C 51.461 137.486,51.326 137.887,50.833 141.666 C 50.151 146.892,49.408 149.409,48.325 150.167 C 47.575 150.693,47.541 150.848,48.036 151.459 C 48.501 152.032,48.503 152.095,48.048 151.821 C 47.739 151.635,47.569 151.645,47.661 151.844 C 47.752 152.040,48.088 152.726,48.408 153.368 C 48.839 154.232,48.867 154.578,48.518 154.694 C 48.258 154.781,48.155 155.140,48.290 155.491 C 48.446 155.898,48.375 156.032,48.096 155.859 C 47.853 155.709,47.525 155.798,47.366 156.055 C 47.185 156.348,47.250 156.416,47.538 156.238 C 47.809 156.071,48.000 156.201,48.000 156.553 C 48.000 156.883,47.820 157.264,47.600 157.400 C 47.380 157.536,47.200 158.379,47.200 159.273 C 47.200 160.576,47.305 160.811,47.730 160.458 C 48.115 160.138,48.382 160.142,48.713 160.473 C 49.051 160.811,49.319 160.799,49.766 160.429 C 50.109 160.144,50.586 160.070,50.882 160.256 C 51.167 160.435,51.940 160.605,52.600 160.635 C 57.051 160.834,57.542 163.613,53.921 168.112 C 52.847 169.446,52.731 172.809,53.697 174.643 C 54.031 175.279,54.799 177.780,55.403 180.200 C 57.938 190.367,58.809 193.486,59.535 195.000 C 59.957 195.880,60.804 197.950,61.417 199.600 C 62.030 201.250,62.765 202.963,63.050 203.406 C 63.336 203.850,63.649 204.840,63.747 205.606 C 63.985 207.478,64.389 209.229,64.805 210.200 C 64.994 210.640,65.509 211.853,65.949 212.895 C 66.390 213.937,67.379 215.737,68.148 216.895 C 69.862 219.478,71.458 223.885,71.702 226.713 C 71.824 228.115,72.166 229.125,72.718 229.713 C 73.176 230.201,74.561 232.760,75.796 235.400 C 77.030 238.040,78.432 241.010,78.911 242.000 C 79.396 243.002,81.762 245.839,84.249 248.400 C 87.791 252.048,88.964 253.553,89.919 255.672 C 91.382 258.914,104.527 272.400,106.225 272.400 C 106.345 272.400,108.549 273.843,111.122 275.606 C 120.814 282.248,121.880 282.831,126.568 284.061 C 128.970 284.692,131.738 285.656,132.718 286.204 C 134.018 286.930,135.110 287.203,136.750 287.210 C 137.988 287.215,139.730 287.388,140.622 287.594 C 141.514 287.800,144.124 288.149,146.422 288.368 C 150.987 288.804,154.152 289.728,156.795 291.397 C 157.736 291.991,159.697 292.977,161.153 293.589 C 169.426 297.067,171.249 297.906,175.932 300.392 C 177.262 301.098,178.606 301.427,180.600 301.535 C 182.140 301.618,183.670 301.916,184.000 302.198 C 184.330 302.480,185.230 302.836,186.000 302.988 C 186.770 303.140,188.300 303.864,189.400 304.597 C 190.500 305.330,192.178 306.158,193.129 306.437 C 194.493 306.837,195.018 307.260,195.623 308.445 C 196.540 310.242,196.979 310.563,197.851 310.075 C 198.339 309.803,199.846 310.403,203.680 312.397 C 209.258 315.298,210.800 316.833,212.241 320.916 C 213.154 323.503,213.800 324.246,216.291 325.575 C 217.561 326.253,219.725 327.810,221.100 329.035 L 223.600 331.264 223.600 333.549 C 223.600 335.728,223.683 335.915,225.400 337.600 C 226.390 338.572,227.200 339.679,227.200 340.061 C 227.200 340.442,227.536 340.990,227.946 341.277 C 228.357 341.565,228.702 341.950,228.713 342.133 C 228.748 342.700,229.200 342.964,229.200 342.418 C 229.200 342.019,229.328 342.008,229.766 342.371 C 230.252 342.775,230.253 342.992,229.768 343.920 C 229.458 344.514,229.204 345.225,229.202 345.500 C 229.201 345.775,228.924 346.000,228.587 346.000 C 228.251 346.000,227.871 346.270,227.745 346.600 C 227.618 346.930,227.264 347.200,226.957 347.200 C 226.651 347.200,226.400 347.367,226.400 347.571 C 226.400 347.775,226.085 348.024,225.700 348.124 C 225.315 348.225,227.029 348.328,229.509 348.354 C 233.893 348.399,234.029 348.374,234.452 347.445 C 234.916 346.427,235.356 346.306,243.008 345.080 C 246.016 344.598,247.040 344.227,249.170 342.851 C 250.575 341.943,252.122 341.200,252.608 341.200 C 253.673 341.200,255.461 339.868,255.791 338.828 C 256.096 337.867,258.332 336.802,260.060 336.794 C 261.769 336.786,262.279 336.448,263.119 334.765 C 263.497 334.006,264.458 333.047,265.283 332.606 C 266.098 332.169,266.981 331.410,267.244 330.918 C 267.507 330.426,268.389 329.562,269.204 328.998 C 270.018 328.433,270.884 327.535,271.126 327.002 C 271.369 326.469,272.295 325.551,273.184 324.963 C 274.073 324.375,274.800 323.780,274.800 323.641 C 274.800 323.501,275.877 321.500,277.193 319.194 C 278.510 316.887,279.590 314.744,279.593 314.431 C 279.597 314.118,280.389 312.228,281.353 310.231 C 284.982 302.711,285.469 284.732,282.178 279.710 C 281.854 279.215,280.948 276.827,280.166 274.403 C 279.383 271.979,278.151 269.116,277.428 268.041 C 276.704 266.966,275.694 265.077,275.183 263.843 C 274.671 262.609,274.119 261.600,273.956 261.600 C 273.792 261.600,271.309 259.462,268.438 256.850 C 265.567 254.237,262.539 251.785,261.709 251.400 C 260.879 251.015,259.658 250.296,258.996 249.803 C 256.755 248.133,250.304 244.745,247.157 243.584 C 245.436 242.949,243.311 242.065,242.435 241.618 C 241.559 241.171,238.449 240.157,235.523 239.364 C 232.597 238.571,229.851 237.734,229.421 237.504 C 228.194 236.848,222.333 235.645,216.086 234.768 C 212.944 234.327,209.244 233.617,207.865 233.191 C 206.486 232.765,202.008 231.873,197.913 231.208 C 193.818 230.543,189.327 229.640,187.934 229.201 C 186.540 228.762,182.802 227.945,179.627 227.385 C 176.452 226.825,172.762 225.945,171.427 225.430 C 170.092 224.914,167.380 224.019,165.400 223.440 C 163.420 222.860,160.180 221.770,158.200 221.017 C 156.220 220.263,153.347 219.262,151.816 218.791 C 150.285 218.321,148.516 217.568,147.885 217.118 C 147.254 216.669,145.266 215.638,143.469 214.829 C 136.639 211.753,129.484 207.794,125.986 205.154 C 125.224 204.579,123.328 203.376,121.774 202.480 C 120.219 201.584,117.671 199.604,116.111 198.081 C 114.551 196.558,112.673 194.938,111.937 194.482 C 109.690 193.090,100.086 182.839,98.181 179.800 C 97.767 179.140,96.847 177.873,96.136 176.985 C 95.425 176.097,94.289 174.207,93.612 172.785 C 92.935 171.363,91.937 169.480,91.395 168.600 C 90.852 167.720,90.111 166.190,89.747 165.200 C 89.383 164.210,88.484 162.115,87.749 160.545 C 86.182 157.196,85.329 154.137,84.999 150.686 C 84.868 149.319,84.382 145.891,83.918 143.068 C 83.097 138.077,83.092 137.803,83.740 133.068 C 84.107 130.391,84.588 126.403,84.810 124.207 C 85.582 116.567,86.456 113.237,88.259 111.069 C 88.784 110.439,89.200 109.411,89.200 108.746 C 89.200 106.351,90.069 104.090,91.637 102.409 C 92.496 101.487,93.200 100.535,93.200 100.293 C 93.200 99.349,94.982 96.131,96.241 94.800 C 96.969 94.030,97.828 92.657,98.148 91.750 C 98.468 90.842,99.377 89.250,100.169 88.213 C 100.961 87.175,102.052 85.570,102.594 84.646 C 103.136 83.722,104.120 82.566,104.783 82.076 C 105.445 81.586,106.280 80.604,106.638 79.893 C 106.996 79.182,107.833 78.027,108.498 77.326 C 109.239 76.545,109.613 75.811,109.465 75.426 C 109.229 74.810,108.883 74.777,105.948 75.089 M191.200 77.183 C 180.302 78.012,168.793 80.064,166.387 81.609 C 165.189 82.377,163.203 83.097,160.879 83.604 C 158.450 84.134,156.648 84.800,155.447 85.610 C 154.459 86.277,152.793 87.202,151.746 87.665 C 150.698 88.129,149.562 88.836,149.220 89.236 C 148.879 89.637,147.430 90.582,146.000 91.336 C 143.013 92.911,140.826 95.658,139.932 98.957 C 139.449 100.739,139.136 101.100,136.543 102.866 C 134.077 104.547,133.649 105.017,133.410 106.306 C 133.225 107.310,132.618 108.284,131.562 109.273 C 130.599 110.176,129.893 111.259,129.738 112.073 C 129.371 113.996,128.176 116.203,127.003 117.126 C 124.852 118.818,123.770 126.402,125.021 131.023 L 125.747 133.705 126.471 132.811 C 126.870 132.319,127.096 131.755,126.974 131.558 C 126.852 131.361,126.943 131.200,127.176 131.200 C 127.409 131.200,127.600 130.925,127.600 130.589 C 127.600 129.424,129.978 125.261,130.791 125.003 C 131.236 124.862,131.600 124.614,131.600 124.453 C 131.600 123.447,135.847 122.761,144.000 122.451 C 149.809 122.230,150.744 122.100,151.800 121.362 C 153.036 120.499,155.207 120.641,155.816 121.626 C 155.990 121.908,156.236 121.902,156.591 121.608 C 156.965 121.297,157.415 121.315,158.199 121.672 C 159.131 122.097,159.360 122.070,159.788 121.484 C 160.063 121.108,160.808 120.779,161.444 120.753 L 162.600 120.705 161.400 120.444 C 160.596 120.269,160.366 120.078,160.704 119.866 C 160.981 119.691,161.566 119.662,162.004 119.801 C 162.491 119.956,162.800 119.871,162.800 119.582 C 162.800 119.255,163.259 119.195,164.300 119.387 C 165.851 119.672,165.773 119.096,164.200 118.652 C 163.760 118.528,164.204 118.519,165.187 118.632 C 167.414 118.888,169.516 120.395,169.435 121.679 C 169.403 122.186,169.530 122.709,169.718 122.842 C 169.906 122.975,169.775 123.368,169.428 123.715 C 168.854 124.289,168.870 124.368,169.605 124.601 C 170.048 124.742,170.321 125.005,170.209 125.185 C 169.985 125.547,171.707 126.800,172.428 126.800 C 172.885 126.800,176.732 128.925,181.569 131.847 C 182.982 132.701,184.652 134.109,185.280 134.975 C 186.896 137.204,189.838 140.267,192.607 142.600 C 193.912 143.700,195.434 145.065,195.990 145.633 C 196.545 146.202,197.410 146.886,197.911 147.154 C 198.412 147.421,198.722 147.802,198.600 148.000 C 198.377 148.361,202.241 149.709,204.963 150.220 C 205.760 150.369,206.544 150.712,206.706 150.981 C 206.868 151.250,208.070 151.956,209.377 152.549 C 210.685 153.141,212.623 154.161,213.683 154.813 C 214.744 155.466,216.161 156.000,216.832 156.000 C 217.503 156.000,218.437 156.206,218.908 156.458 C 219.845 156.959,221.361 157.146,226.200 157.356 C 228.716 157.465,229.819 157.720,231.360 158.548 C 232.583 159.205,233.948 159.600,234.995 159.600 C 236.146 159.600,237.661 160.095,239.835 161.181 C 241.576 162.051,243.900 162.986,245.000 163.259 C 246.100 163.532,247.460 164.171,248.022 164.678 C 248.584 165.185,249.313 165.600,249.642 165.600 C 249.971 165.600,250.465 165.825,250.740 166.100 C 251.015 166.375,252.116 166.600,253.188 166.600 C 254.707 166.600,255.366 166.817,256.185 167.586 C 257.049 168.397,257.364 168.490,257.971 168.111 C 258.376 167.858,259.089 167.750,259.554 167.872 C 260.078 168.009,260.400 167.905,260.400 167.600 C 260.400 167.290,260.771 167.178,261.400 167.298 C 261.950 167.403,262.400 167.354,262.400 167.190 C 262.400 165.276,268.880 167.180,272.600 170.186 C 273.480 170.898,274.878 171.605,275.706 171.759 C 277.635 172.117,282.691 174.677,283.174 175.540 C 283.574 176.255,284.356 177.186,287.961 181.241 C 289.252 182.693,290.418 184.223,290.552 184.641 C 290.685 185.058,291.662 185.990,292.722 186.711 C 297.077 189.674,302.908 197.324,303.981 201.483 C 304.684 204.205,306.023 206.796,307.088 207.494 C 307.589 207.823,308.000 208.338,308.000 208.638 C 308.000 210.120,309.313 212.400,310.167 212.400 C 310.740 212.400,311.726 213.186,312.989 214.649 L 314.930 216.898 314.895 221.316 C 314.854 226.302,315.657 227.799,318.516 228.076 C 320.357 228.254,320.592 231.659,318.983 234.834 L 317.927 236.918 320.150 238.959 L 322.372 241.000 321.743 242.500 C 321.397 243.325,320.886 244.000,320.606 244.000 C 320.327 244.000,319.872 244.272,319.596 244.605 C 319.233 245.043,318.953 245.093,318.583 244.786 C 318.221 244.485,317.992 244.490,317.800 244.800 C 317.614 245.102,317.374 245.111,317.035 244.829 C 316.697 244.548,316.407 244.553,316.116 244.844 C 315.815 245.145,315.600 245.124,315.383 244.773 C 315.185 244.453,315.241 244.378,315.538 244.562 C 316.199 244.970,316.110 244.189,315.432 243.626 C 314.952 243.228,314.894 243.417,315.057 244.840 C 315.164 245.766,315.295 247.280,315.349 248.203 C 315.408 249.201,315.803 250.332,316.324 250.994 C 316.806 251.607,317.200 252.345,317.200 252.636 C 317.200 252.926,317.650 253.614,318.200 254.164 C 318.788 254.752,319.201 255.624,319.201 256.282 C 319.202 256.897,319.520 257.940,319.907 258.600 C 321.130 260.683,322.889 267.162,323.438 271.600 C 323.588 272.810,324.023 274.430,324.406 275.200 C 326.700 279.816,326.590 299.699,324.245 304.336 C 323.681 305.452,322.800 310.700,322.800 312.944 C 322.800 314.872,321.754 318.063,320.539 319.841 C 319.953 320.699,319.066 322.434,318.567 323.698 C 318.069 324.962,317.300 326.456,316.858 327.017 C 316.417 327.578,315.572 329.304,314.980 330.853 C 314.349 332.503,313.343 334.230,312.552 335.022 C 311.808 335.765,311.200 336.604,311.200 336.887 C 311.199 337.995,308.857 342.271,307.910 342.891 C 307.260 343.317,306.744 344.198,306.442 345.398 C 306.069 346.880,305.731 347.352,304.747 347.766 C 303.320 348.365,303.928 348.800,306.193 348.800 C 307.279 348.800,307.667 348.552,308.323 347.440 C 308.849 346.550,309.542 345.988,310.331 345.815 C 312.761 345.281,331.292 326.880,333.285 323.023 C 333.661 322.294,334.600 321.325,335.370 320.871 C 336.140 320.416,337.024 319.449,337.334 318.722 C 337.644 317.995,338.386 316.950,338.983 316.400 C 339.581 315.850,340.310 314.826,340.604 314.124 C 340.898 313.423,341.848 311.888,342.715 310.715 C 343.582 309.542,344.674 307.831,345.142 306.914 C 345.610 305.997,346.594 304.787,347.330 304.226 C 348.344 303.453,348.826 302.633,349.326 300.836 C 349.763 299.264,350.526 297.841,351.590 296.611 C 352.473 295.591,353.315 294.271,353.461 293.678 C 353.931 291.769,355.189 289.128,356.205 287.922 C 356.748 287.275,357.576 285.454,358.044 283.873 C 358.512 282.293,359.485 279.920,360.206 278.600 C 360.926 277.280,361.916 274.850,362.405 273.200 C 362.893 271.550,363.900 269.030,364.642 267.600 C 365.528 265.892,366.140 263.971,366.426 262.000 C 366.974 258.236,368.078 253.660,369.130 250.800 C 370.274 247.687,372.837 229.925,373.603 219.800 C 374.385 209.451,371.220 181.341,368.421 173.784 C 368.010 172.676,367.550 170.876,367.398 169.784 C 366.864 165.955,365.911 162.315,364.803 159.869 C 364.188 158.511,363.198 155.780,362.603 153.800 C 362.008 151.820,361.104 149.473,360.593 148.585 C 360.083 147.696,359.279 145.806,358.806 144.385 C 358.333 142.963,357.463 141.080,356.874 140.200 C 355.243 137.767,352.602 133.014,350.611 128.931 C 349.627 126.912,348.641 125.149,348.418 125.011 C 348.196 124.874,346.401 122.295,344.431 119.281 C 342.460 116.266,340.171 113.040,339.344 112.111 C 338.517 111.183,337.651 110.088,337.420 109.678 C 336.704 108.408,328.823 99.688,324.182 95.032 C 313.433 84.246,312.054 84.250,304.098 95.083 C 303.162 96.357,301.679 98.300,300.801 99.400 C 299.923 100.500,298.313 102.683,297.223 104.252 C 296.133 105.820,294.240 107.958,293.018 109.003 L 290.794 110.902 289.077 110.422 C 287.550 109.994,286.009 109.063,278.200 103.852 C 277.100 103.118,275.865 102.139,275.455 101.677 C 275.046 101.216,273.246 100.092,271.455 99.181 C 269.665 98.270,267.916 97.271,267.569 96.962 C 267.221 96.653,266.764 96.400,266.552 96.400 C 266.340 96.400,264.554 95.474,262.583 94.342 C 260.612 93.210,257.470 91.669,255.600 90.916 C 253.730 90.164,251.840 89.318,251.400 89.036 C 250.960 88.754,249.122 88.033,247.315 87.434 C 245.508 86.834,243.359 85.890,242.541 85.334 C 240.536 83.973,239.870 83.750,234.891 82.762 C 232.531 82.294,230.116 81.662,229.523 81.358 C 224.672 78.862,201.836 76.374,191.200 77.183 M125.269 139.100 C 124.226 141.136,124.823 144.800,126.198 144.800 C 127.952 144.800,128.828 141.577,127.479 140.087 C 127.105 139.675,126.800 139.126,126.800 138.869 C 126.800 138.144,125.672 138.315,125.269 139.100 M129.150 146.171 C 129.123 146.297,129.075 146.535,129.044 146.700 C 129.013 146.865,128.858 147.204,128.699 147.453 C 128.155 148.308,127.929 150.800,128.396 150.800 C 128.641 150.800,129.095 151.409,129.406 152.153 C 129.769 153.021,130.335 153.597,130.986 153.761 C 132.264 154.081,132.267 154.532,130.998 155.530 C 129.218 156.930,129.244 158.561,131.060 159.448 C 132.064 159.938,132.839 160.710,133.287 161.665 C 133.806 162.773,134.294 163.199,135.287 163.412 C 138.238 164.043,142.000 167.518,142.000 169.611 C 142.000 170.567,142.563 170.906,145.920 171.974 C 148.522 172.802,148.866 173.029,149.071 174.057 C 149.221 174.805,149.600 175.272,150.151 175.387 C 154.019 176.190,155.279 176.337,156.544 176.132 C 158.919 175.746,158.292 174.545,154.800 172.787 C 153.810 172.289,153.000 171.925,153.000 171.978 C 153.000 172.796,149.936 171.272,149.428 170.202 C 149.083 169.476,147.721 167.690,146.401 166.233 C 145.080 164.776,144.000 163.434,144.000 163.252 C 144.000 163.069,142.086 161.227,139.746 159.160 C 137.406 157.092,135.129 155.058,134.686 154.641 C 134.080 154.069,133.719 153.983,133.221 154.294 C 132.430 154.788,130.994 152.766,131.661 152.099 C 132.269 151.491,132.181 150.318,131.400 148.600 C 131.000 147.720,130.656 146.822,130.636 146.605 C 130.598 146.184,129.234 145.785,129.150 146.171 M216.588 195.219 C 216.278 195.720,216.830 195.882,218.903 195.899 C 220.795 195.915,222.086 195.240,220.324 195.156 C 219.816 195.132,218.813 195.063,218.095 195.003 C 217.377 194.942,216.699 195.040,216.588 195.219 M324.773 247.962 C 325.803 249.409,325.810 249.299,324.554 251.197 L 323.509 252.777 322.635 251.489 C 321.176 249.337,321.089 248.770,322.058 247.738 C 323.213 246.509,323.771 246.555,324.773 247.962 M234.846 338.874 C 236.736 339.936,236.737 339.947,234.862 341.241 C 233.028 342.508,230.685 343.033,230.103 342.308 C 229.028 340.967,230.120 338.561,231.929 338.284 C 232.518 338.194,233.065 338.093,233.146 338.060 C 233.226 338.027,233.991 338.393,234.846 338.874 " stroke="none" fill="#b49c6d" fill-rule="evenodd"></path><path id="path1" d="M0.000 204.000 L 0.000 408.000 200.000 408.000 L 400.000 408.000 400.000 204.000 L 400.000 0.000 200.000 0.000 L 0.000 0.000 0.000 204.000 M120.336 64.707 C 121.092 65.057,121.939 65.884,122.285 66.610 L 122.897 67.894 120.402 70.934 C 119.030 72.606,116.962 74.687,115.807 75.559 C 114.520 76.531,113.232 77.988,112.477 79.325 C 111.800 80.525,110.718 81.932,110.072 82.453 C 109.426 82.974,108.449 84.120,107.901 85.000 C 107.352 85.880,106.501 86.960,106.009 87.400 C 105.516 87.840,104.701 89.014,104.196 90.008 C 103.692 91.003,102.546 92.704,101.650 93.789 C 100.754 94.873,99.744 96.571,99.407 97.562 C 99.069 98.553,98.356 99.822,97.822 100.382 C 97.288 100.942,96.384 102.836,95.813 104.590 C 95.242 106.345,94.235 108.737,93.575 109.905 C 92.916 111.073,91.765 114.326,91.018 117.132 C 90.271 119.939,89.386 122.947,89.051 123.818 C 87.391 128.134,87.147 149.667,88.735 151.760 C 89.370 152.596,90.773 156.612,91.614 160.000 C 92.168 162.230,92.796 163.755,93.440 164.433 C 93.979 165.001,94.954 166.972,95.605 168.814 C 96.256 170.655,97.051 172.308,97.371 172.487 C 97.690 172.667,98.613 174.115,99.420 175.707 C 100.227 177.298,101.477 179.091,102.196 179.690 C 102.916 180.290,103.797 181.509,104.153 182.400 C 104.550 183.390,105.179 184.164,105.771 184.389 C 106.304 184.592,107.720 185.712,108.918 186.879 C 110.116 188.045,111.942 189.720,112.975 190.600 C 114.008 191.480,115.646 192.984,116.614 193.941 C 117.581 194.899,119.234 196.222,120.287 196.882 C 121.339 197.541,122.650 198.503,123.200 199.019 C 123.750 199.534,125.227 200.411,126.482 200.965 C 127.738 201.520,129.049 202.408,129.396 202.938 C 129.756 203.486,131.442 204.543,133.314 205.392 C 135.121 206.212,136.960 207.195,137.400 207.576 C 137.840 207.957,139.609 208.772,141.331 209.387 C 143.053 210.001,144.943 210.900,145.531 211.385 C 146.119 211.869,148.310 212.947,150.400 213.781 C 152.490 214.615,154.380 215.437,154.600 215.608 C 154.820 215.779,156.980 216.488,159.400 217.184 C 161.820 217.879,164.340 218.794,165.000 219.216 C 166.983 220.484,167.609 220.686,172.399 221.596 C 174.928 222.077,178.258 222.917,179.799 223.464 C 181.400 224.032,185.855 224.941,190.200 225.587 C 194.380 226.208,198.880 227.112,200.200 227.596 C 201.520 228.080,206.560 229.090,211.400 229.841 C 216.240 230.592,221.640 231.636,223.400 232.162 C 225.160 232.689,228.220 233.411,230.200 233.768 C 232.403 234.165,234.898 234.952,236.630 235.796 C 238.187 236.554,241.037 237.542,242.965 237.992 C 246.672 238.856,247.708 239.269,249.000 240.400 C 249.440 240.785,250.790 241.417,252.000 241.805 C 254.715 242.675,256.894 243.749,257.552 244.542 C 257.826 244.872,258.984 245.624,260.125 246.212 C 261.266 246.800,262.830 247.873,263.600 248.596 C 264.370 249.320,265.630 250.225,266.400 250.607 C 267.170 250.989,268.520 251.995,269.400 252.844 C 270.280 253.692,272.283 255.604,273.851 257.093 C 275.419 258.582,277.075 260.520,277.530 261.400 C 277.985 262.280,278.985 263.599,279.753 264.331 C 280.840 265.368,281.281 266.241,281.745 268.274 C 282.072 269.710,282.711 271.279,283.164 271.761 C 284.103 272.761,285.292 275.982,285.998 279.441 C 286.263 280.738,286.902 283.780,287.417 286.200 C 288.680 292.126,288.982 296.034,288.422 299.200 C 287.620 303.732,284.809 312.931,283.647 314.823 C 283.032 315.826,282.039 317.927,281.441 319.494 C 280.842 321.060,280.087 322.562,279.762 322.832 C 279.437 323.102,278.206 324.780,277.027 326.561 C 273.102 332.491,265.597 339.451,259.414 342.892 C 257.866 343.754,255.986 344.897,255.235 345.433 C 254.484 345.970,252.767 346.749,251.420 347.165 C 250.073 347.581,247.807 348.556,246.385 349.332 C 244.963 350.108,242.090 351.194,240.000 351.746 C 237.910 352.297,234.758 353.205,232.995 353.762 C 222.023 357.230,188.621 356.678,175.600 352.814 C 174.170 352.389,171.318 351.668,169.262 351.212 C 167.206 350.755,165.045 350.133,164.459 349.830 C 163.873 349.527,161.151 348.533,158.410 347.620 C 155.669 346.706,152.521 345.450,151.413 344.828 C 150.306 344.206,148.478 343.398,147.351 343.033 C 146.225 342.668,144.250 341.736,142.964 340.961 C 141.677 340.187,139.037 338.998,137.098 338.321 C 135.158 337.644,132.903 336.557,132.086 335.906 C 131.269 335.255,130.060 334.445,129.400 334.106 C 128.740 333.768,127.570 333.006,126.800 332.415 C 126.030 331.823,124.379 330.933,123.132 330.436 C 121.884 329.939,120.534 329.165,120.132 328.716 C 119.729 328.268,116.880 326.237,113.800 324.204 C 110.720 322.171,107.840 320.102,107.400 319.606 C 106.492 318.582,101.469 314.755,100.087 314.034 C 99.586 313.773,98.670 312.861,98.053 312.009 L 96.931 310.460 95.255 311.311 C 93.099 312.406,81.905 323.455,78.238 328.107 C 77.411 329.156,75.710 330.710,74.459 331.560 L 72.184 333.105 69.992 332.296 C 66.469 330.997,64.040 328.644,60.632 323.228 C 59.954 322.152,58.230 319.628,56.800 317.619 C 55.370 315.610,53.638 313.029,52.952 311.883 C 52.266 310.737,50.773 308.270,49.635 306.400 C 48.497 304.530,46.968 301.740,46.237 300.200 C 42.518 292.367,40.765 288.340,39.968 285.800 C 39.484 284.260,38.769 282.361,38.377 281.581 C 37.986 280.800,37.223 278.633,36.682 276.765 C 36.140 274.897,35.338 272.566,34.899 271.584 C 34.461 270.603,33.615 267.550,33.020 264.800 C 32.425 262.050,31.335 257.460,30.598 254.600 C 26.617 239.153,26.655 196.323,30.661 184.051 C 31.200 182.401,31.906 179.156,32.232 176.839 C 32.891 172.143,33.583 169.247,34.813 166.043 C 35.268 164.856,35.992 162.132,36.421 159.990 C 37.196 156.127,38.109 153.070,38.738 152.235 C 38.918 151.996,39.478 150.630,39.983 149.200 C 40.897 146.610,47.445 133.566,50.122 129.000 C 50.896 127.680,52.066 125.496,52.722 124.147 C 53.377 122.798,54.698 120.697,55.657 119.478 C 58.149 116.308,59.613 114.208,61.114 111.644 C 61.837 110.410,62.749 109.128,63.141 108.795 C 63.533 108.463,64.910 106.762,66.201 105.016 C 67.493 103.270,69.731 100.599,71.175 99.082 C 78.055 91.851,82.799 87.221,83.926 86.638 C 84.607 86.286,85.757 85.257,86.482 84.350 C 87.207 83.444,88.700 82.191,89.800 81.566 C 90.900 80.942,92.567 79.614,93.504 78.615 C 94.441 77.617,95.465 76.800,95.779 76.800 C 96.093 76.800,96.947 76.246,97.675 75.569 C 98.404 74.892,99.810 73.964,100.800 73.506 C 101.790 73.048,103.555 71.969,104.722 71.107 C 105.889 70.246,107.509 69.267,108.322 68.933 C 109.135 68.599,110.300 67.854,110.911 67.277 C 112.416 65.857,117.205 63.627,118.200 63.883 C 118.640 63.996,119.601 64.367,120.336 64.707 M209.516 73.624 C 213.687 74.080,217.541 74.943,219.182 75.789 C 219.742 76.078,222.538 76.599,225.396 76.947 C 229.907 77.496,231.015 77.785,233.796 79.138 C 235.617 80.023,238.208 80.906,239.800 81.182 C 243.847 81.885,245.105 82.341,246.590 83.645 C 247.499 84.443,248.926 85.058,251.157 85.613 C 255.212 86.622,256.390 87.066,257.400 87.966 C 257.840 88.357,259.550 89.167,261.200 89.765 C 262.850 90.362,264.651 91.281,265.202 91.807 C 265.753 92.332,267.455 93.233,268.984 93.808 C 270.513 94.384,272.447 95.472,273.283 96.227 C 274.119 96.982,275.036 97.600,275.321 97.600 C 275.607 97.600,276.936 98.483,278.275 99.562 C 279.614 100.641,281.585 102.002,282.655 102.586 C 283.725 103.171,284.907 104.009,285.283 104.448 C 287.081 106.550,290.835 106.535,292.234 104.420 C 292.810 103.551,293.692 102.570,294.194 102.240 C 294.697 101.911,295.510 100.813,296.000 99.800 C 296.490 98.787,297.331 97.670,297.869 97.318 C 298.406 96.966,299.178 96.030,299.584 95.239 C 299.990 94.448,301.212 92.786,302.299 91.548 C 303.386 90.309,304.656 88.689,305.120 87.948 C 305.990 86.558,309.124 83.693,310.684 82.861 C 312.369 81.962,315.850 82.722,317.945 84.447 C 322.323 88.050,329.492 94.973,330.738 96.800 C 331.263 97.570,332.310 98.715,333.064 99.343 C 334.498 100.540,338.759 105.991,339.748 107.894 C 340.064 108.502,340.892 109.420,341.589 109.933 C 342.286 110.446,343.198 111.661,343.614 112.633 C 344.031 113.605,344.550 114.400,344.768 114.400 C 344.986 114.400,345.921 115.705,346.845 117.300 C 347.769 118.895,349.104 120.850,349.812 121.646 C 350.520 122.441,351.406 124.015,351.781 125.143 C 352.156 126.272,352.691 127.331,352.971 127.498 C 353.761 127.968,355.465 130.831,356.006 132.600 C 356.276 133.480,356.905 134.650,357.404 135.200 C 358.617 136.536,359.869 139.093,360.216 140.942 C 360.379 141.812,361.055 143.037,361.819 143.847 C 362.876 144.968,363.303 145.958,363.959 148.806 C 364.573 151.474,365.128 152.823,366.178 154.198 C 367.611 156.075,368.195 157.686,368.805 161.434 C 368.996 162.605,369.338 163.910,369.565 164.335 C 370.216 165.550,371.972 172.637,372.620 176.663 C 372.944 178.677,373.478 180.967,373.806 181.753 C 377.881 191.506,378.171 234.872,374.227 244.773 C 373.550 246.472,373.070 248.740,372.813 251.451 C 372.428 255.513,371.871 257.540,369.857 262.200 C 369.286 263.520,368.812 265.050,368.804 265.600 C 368.769 267.875,367.492 271.918,366.185 273.894 C 365.423 275.045,364.800 276.266,364.800 276.605 C 364.800 277.540,362.583 284.074,361.636 285.930 C 361.178 286.828,360.419 288.606,359.951 289.882 C 359.482 291.157,358.682 292.760,358.172 293.443 C 357.663 294.127,356.542 296.197,355.681 298.043 C 354.821 299.890,353.640 301.804,353.058 302.297 C 352.476 302.791,352.000 303.371,352.000 303.586 C 352.000 304.519,349.973 308.286,348.979 309.200 C 348.381 309.750,347.561 310.933,347.158 311.829 C 346.755 312.725,345.863 314.165,345.177 315.029 C 344.490 315.893,343.299 317.725,342.530 319.099 C 341.761 320.474,340.872 321.744,340.554 321.922 C 340.237 322.099,339.397 323.073,338.688 324.085 C 335.883 328.092,334.465 329.828,331.200 333.247 C 329.330 335.205,326.810 337.896,325.600 339.226 C 322.570 342.557,313.684 350.540,312.104 351.351 C 311.391 351.717,310.513 352.467,310.152 353.017 C 309.792 353.567,307.945 355.024,306.049 356.255 C 304.152 357.486,301.430 359.351,300.000 360.400 C 297.517 362.220,293.516 363.774,289.200 364.594 C 288.430 364.740,287.485 364.948,287.100 365.057 C 284.443 365.805,287.841 356.707,290.989 354.644 C 291.533 354.288,293.339 352.304,295.002 350.236 C 296.666 348.168,298.287 346.375,298.606 346.253 C 298.925 346.131,299.990 344.809,300.974 343.315 C 301.958 341.822,303.345 339.790,304.058 338.800 C 307.049 334.643,307.983 333.092,308.784 330.950 C 309.250 329.706,310.157 327.948,310.801 327.044 C 315.162 320.918,319.565 303.951,319.895 292.000 C 320.176 281.818,317.551 267.719,314.369 262.322 C 313.501 260.849,312.435 258.869,312.000 257.922 C 310.981 255.702,308.293 251.444,306.619 249.399 C 305.898 248.518,304.934 247.182,304.476 246.429 C 303.179 244.296,296.515 237.242,292.498 233.750 C 291.454 232.842,289.700 231.297,288.600 230.317 C 287.500 229.337,284.260 227.133,281.400 225.419 C 278.540 223.706,275.635 221.882,274.944 221.366 C 274.254 220.849,272.299 219.875,270.600 219.200 C 268.901 218.525,266.946 217.552,266.256 217.037 C 263.976 215.337,259.673 213.649,250.800 210.975 C 248.930 210.411,245.870 209.339,244.000 208.592 C 242.130 207.845,239.160 206.845,237.400 206.369 C 235.640 205.894,232.940 205.085,231.400 204.571 C 229.860 204.058,227.700 203.525,226.600 203.388 C 222.699 202.902,213.763 201.174,211.200 200.411 C 207.361 199.268,192.749 195.749,188.600 194.970 C 181.364 193.610,169.673 190.078,165.701 188.051 C 164.816 187.600,162.766 186.931,161.146 186.566 C 158.250 185.912,155.475 184.768,155.026 184.043 C 154.901 183.840,153.407 183.095,151.707 182.387 C 150.007 181.679,148.072 180.692,147.408 180.194 C 146.744 179.696,145.053 178.715,143.652 178.014 C 142.250 177.313,140.659 176.295,140.116 175.752 C 139.573 175.209,138.470 174.340,137.664 173.820 C 135.169 172.209,128.193 164.720,125.854 161.142 C 125.042 159.900,123.925 157.770,123.372 156.407 C 122.818 155.045,121.772 153.068,121.047 152.014 C 119.955 150.426,119.576 149.252,118.831 145.149 C 118.337 142.427,117.786 139.628,117.607 138.930 C 117.253 137.552,117.702 128.219,118.386 122.713 C 118.913 118.474,119.653 115.957,120.929 114.061 C 121.470 113.257,122.226 111.610,122.609 110.400 C 122.991 109.190,123.899 107.361,124.626 106.336 C 125.353 105.311,126.304 103.781,126.741 102.936 C 129.397 97.798,139.749 88.493,145.775 85.828 C 147.048 85.265,148.697 84.271,149.439 83.619 C 150.182 82.967,151.557 82.233,152.495 81.988 C 156.333 80.986,158.183 80.372,159.025 79.821 C 160.374 78.936,164.592 77.699,168.551 77.026 C 170.503 76.694,172.855 76.057,173.777 75.611 C 178.091 73.523,198.301 72.399,209.516 73.624 " stroke="none" fill="#06293d" fill-rule="evenodd"></path><path id="path2" d="M147.900 89.665 C 147.295 89.886,146.800 90.232,146.800 90.433 C 146.800 90.995,147.301 90.859,148.400 90.000 C 149.519 89.125,149.470 89.092,147.900 89.665 M143.340 91.731 C 141.749 92.293,140.195 93.236,138.940 94.402 C 137.873 95.393,136.256 96.833,135.347 97.602 C 133.950 98.783,132.686 100.402,129.765 104.752 C 127.323 108.390,125.870 111.065,125.167 113.222 C 124.704 114.640,123.621 117.202,122.760 118.915 C 119.751 124.904,119.581 138.850,122.424 146.407 C 124.728 152.532,125.774 154.992,126.310 155.547 C 126.600 155.849,127.472 157.355,128.248 158.895 C 129.519 161.419,132.142 164.661,134.768 166.955 C 135.300 167.420,136.906 168.846,138.336 170.125 C 139.765 171.403,141.490 172.734,142.168 173.081 C 142.845 173.428,143.939 174.162,144.597 174.712 C 145.255 175.262,146.574 176.046,147.527 176.455 C 148.481 176.863,150.207 177.825,151.362 178.593 C 152.518 179.360,154.170 180.238,155.032 180.544 C 155.894 180.850,157.827 181.681,159.327 182.392 C 161.767 183.547,169.399 186.000,170.555 186.000 C 170.803 186.000,171.845 186.446,172.870 186.992 C 174.989 188.120,179.286 189.355,183.400 190.019 C 184.940 190.267,188.090 190.990,190.400 191.625 C 192.710 192.260,196.797 193.147,199.482 193.596 C 202.167 194.045,205.190 194.767,206.201 195.200 C 208.598 196.228,211.834 197.034,215.800 197.592 C 218.733 198.005,222.865 198.892,230.800 200.811 C 232.450 201.210,234.700 201.662,235.800 201.816 C 236.900 201.969,239.240 202.682,241.000 203.401 C 242.760 204.120,245.720 205.186,247.577 205.772 C 249.435 206.357,251.519 207.104,252.210 207.432 C 252.901 207.759,255.572 208.634,258.146 209.376 C 260.719 210.118,263.295 211.056,263.869 211.462 C 265.345 212.506,265.524 212.604,268.200 213.836 C 269.520 214.443,271.230 215.339,272.000 215.828 C 272.770 216.316,274.320 217.010,275.444 217.371 C 276.568 217.732,278.214 218.649,279.102 219.409 C 279.990 220.169,281.638 221.254,282.764 221.820 C 283.890 222.385,285.214 223.246,285.706 223.732 C 286.198 224.219,287.254 224.999,288.053 225.467 C 290.428 226.858,295.269 231.013,297.200 233.320 C 298.190 234.502,299.583 235.904,300.295 236.435 C 301.008 236.966,302.082 238.120,302.682 239.000 C 303.283 239.880,304.410 241.347,305.187 242.260 C 308.071 245.650,309.484 247.432,310.215 248.600 C 310.628 249.260,311.406 250.340,311.943 251.000 C 312.481 251.660,313.428 253.330,314.049 254.712 C 314.669 256.093,315.650 257.844,316.229 258.602 C 316.808 259.361,317.785 261.471,318.402 263.291 C 319.018 265.111,319.911 267.462,320.387 268.516 C 325.518 279.885,323.284 310.351,316.335 323.774 C 314.690 326.952,313.765 329.817,313.680 332.000 L 313.610 333.800 314.180 332.600 C 314.493 331.940,315.217 330.410,315.788 329.200 C 316.359 327.990,317.176 326.370,317.604 325.600 C 318.032 324.830,318.749 323.390,319.198 322.400 C 319.646 321.410,320.456 319.880,320.996 319.000 C 322.091 317.218,322.539 315.284,323.220 309.401 C 323.474 307.201,323.930 304.923,324.233 304.337 C 326.588 299.782,326.706 279.830,324.406 275.200 C 324.023 274.430,323.588 272.810,323.438 271.600 C 322.889 267.162,321.130 260.683,319.907 258.600 C 319.520 257.940,319.202 256.897,319.201 256.282 C 319.201 255.624,318.788 254.752,318.200 254.164 C 317.650 253.614,317.200 252.926,317.200 252.636 C 317.200 252.345,316.806 251.607,316.324 250.994 C 315.803 250.332,315.408 249.201,315.349 248.203 C 315.295 247.280,315.164 245.766,315.057 244.840 C 314.894 243.417,314.952 243.228,315.432 243.626 C 316.110 244.189,316.199 244.970,315.538 244.562 C 315.245 244.381,315.185 244.453,315.374 244.758 C 315.591 245.110,315.813 245.121,316.200 244.800 C 316.584 244.482,316.803 244.482,317.000 244.800 C 317.186 245.102,317.426 245.111,317.765 244.829 C 318.100 244.551,318.390 244.550,318.666 244.826 C 318.943 245.103,319.238 245.036,319.586 244.617 C 319.868 244.278,320.327 244.000,320.606 244.000 C 320.886 244.000,321.397 243.325,321.743 242.500 L 322.372 241.000 320.150 238.959 L 317.927 236.918 318.983 234.834 C 320.592 231.659,320.357 228.254,318.516 228.076 C 315.657 227.799,314.854 226.302,314.895 221.316 L 314.930 216.898 312.989 214.649 C 311.726 213.186,310.740 212.400,310.167 212.400 C 309.313 212.400,308.000 210.120,308.000 208.638 C 308.000 208.338,307.589 207.823,307.088 207.494 C 306.023 206.796,304.684 204.205,303.981 201.483 C 302.908 197.324,297.077 189.674,292.722 186.711 C 291.662 185.990,290.685 185.058,290.552 184.641 C 290.418 184.223,289.252 182.693,287.961 181.241 C 284.356 177.186,283.574 176.255,283.174 175.540 C 282.691 174.677,277.635 172.117,275.706 171.759 C 274.878 171.605,273.480 170.898,272.600 170.186 C 268.880 167.180,262.400 165.276,262.400 167.190 C 262.400 167.354,261.950 167.403,261.400 167.298 C 260.771 167.178,260.400 167.290,260.400 167.600 C 260.400 167.905,260.078 168.009,259.554 167.872 C 259.089 167.750,258.376 167.858,257.971 168.111 C 257.364 168.490,257.049 168.397,256.185 167.586 C 255.366 166.817,254.707 166.600,253.188 166.600 C 252.116 166.600,251.015 166.375,250.740 166.100 C 250.465 165.825,249.971 165.600,249.642 165.600 C 249.313 165.600,248.584 165.185,248.022 164.678 C 247.460 164.171,246.100 163.532,245.000 163.259 C 243.900 162.986,241.576 162.051,239.835 161.181 C 237.661 160.095,236.146 159.600,234.995 159.600 C 233.948 159.600,232.583 159.205,231.360 158.548 C 229.819 157.720,228.716 157.465,226.200 157.356 C 221.361 157.146,219.845 156.959,218.908 156.458 C 218.437 156.206,217.503 156.000,216.832 156.000 C 216.161 156.000,214.744 155.466,213.683 154.813 C 212.623 154.161,210.685 153.141,209.377 152.549 C 208.070 151.956,206.868 151.250,206.706 150.981 C 206.544 150.712,205.760 150.369,204.963 150.220 C 202.241 149.709,198.377 148.361,198.600 148.000 C 198.722 147.802,198.412 147.421,197.911 147.154 C 197.410 146.886,196.545 146.202,195.990 145.633 C 195.434 145.065,193.912 143.700,192.607 142.600 C 189.838 140.267,186.896 137.204,185.280 134.975 C 184.652 134.109,182.982 132.701,181.569 131.847 C 176.732 128.925,172.885 126.800,172.428 126.800 C 171.707 126.800,169.985 125.547,170.209 125.185 C 170.321 125.005,170.048 124.742,169.605 124.601 C 168.870 124.368,168.854 124.289,169.428 123.715 C 169.775 123.368,169.906 122.975,169.718 122.842 C 169.530 122.709,169.403 122.186,169.435 121.679 C 169.516 120.395,167.414 118.888,165.187 118.632 C 164.204 118.519,163.760 118.528,164.200 118.652 C 165.773 119.096,165.851 119.672,164.300 119.387 C 163.259 119.195,162.800 119.255,162.800 119.582 C 162.800 119.871,162.491 119.956,162.004 119.801 C 161.566 119.662,160.981 119.691,160.704 119.866 C 160.366 120.078,160.596 120.269,161.400 120.444 L 162.600 120.705 161.444 120.753 C 160.808 120.779,160.063 121.108,159.788 121.484 C 159.360 122.070,159.131 122.097,158.199 121.672 C 157.415 121.315,156.965 121.297,156.591 121.608 C 156.236 121.902,155.990 121.908,155.816 121.626 C 155.207 120.641,153.036 120.499,151.800 121.362 C 150.744 122.100,149.809 122.230,144.000 122.451 C 135.847 122.761,131.600 123.447,131.600 124.453 C 131.600 124.614,131.236 124.862,130.791 125.003 C 129.978 125.261,127.600 129.424,127.600 130.589 C 127.600 130.925,127.409 131.200,127.176 131.200 C 126.943 131.200,126.852 131.361,126.974 131.558 C 127.096 131.755,126.870 132.319,126.471 132.811 L 125.747 133.705 125.021 131.023 C 123.770 126.402,124.852 118.818,127.003 117.126 C 128.176 116.203,129.371 113.996,129.738 112.073 C 129.893 111.259,130.599 110.176,131.562 109.273 C 132.618 108.284,133.225 107.310,133.410 106.306 C 133.649 105.017,134.078 104.546,136.542 102.865 C 139.114 101.110,139.451 100.723,139.950 98.959 C 140.783 96.009,142.896 92.971,144.785 92.008 C 147.598 90.573,146.964 90.451,143.340 91.731 M95.526 95.498 C 94.817 96.324,93.200 99.658,93.200 100.293 C 93.200 100.535,92.496 101.487,91.637 102.409 C 90.075 104.085,89.200 106.351,89.200 108.722 C 89.200 109.416,88.716 110.500,88.006 111.393 C 86.958 112.711,85.793 115.526,86.148 115.882 C 86.763 116.496,94.854 100.566,95.957 96.571 C 96.451 94.782,96.352 94.535,95.526 95.498 M69.905 107.056 C 67.649 108.818,65.466 111.903,64.494 114.700 C 63.586 117.310,65.279 115.845,66.920 112.600 C 67.476 111.500,68.820 109.768,69.905 108.752 C 71.347 107.402,73.069 104.831,72.263 105.231 C 72.228 105.248,71.167 106.069,69.905 107.056 M61.501 119.742 C 60.396 121.490,58.612 123.600,58.237 123.600 C 58.127 123.600,57.623 124.023,57.118 124.540 C 56.056 125.627,53.396 130.400,53.853 130.400 C 54.022 130.400,53.944 130.616,53.680 130.880 C 53.416 131.144,53.200 131.644,53.200 131.991 C 53.200 133.103,50.827 137.240,48.978 139.352 C 47.992 140.479,46.814 142.390,46.361 143.600 C 45.908 144.810,44.927 146.970,44.182 148.400 C 43.438 149.830,42.261 152.890,41.567 155.200 C 40.874 157.510,40.052 159.898,39.740 160.506 C 39.428 161.114,38.837 163.454,38.426 165.706 C 38.014 167.958,37.232 171.151,36.688 172.802 C 35.470 176.493,34.946 179.083,34.420 184.000 C 34.196 186.090,33.653 189.759,33.211 192.154 C 32.770 194.548,32.293 198.238,32.152 200.354 C 32.011 202.469,31.624 204.830,31.293 205.600 C 30.313 207.880,30.538 231.626,31.584 236.340 C 32.491 240.427,33.314 245.517,34.181 252.400 C 34.673 256.303,35.072 257.926,36.003 259.800 C 36.659 261.120,37.468 263.640,37.802 265.400 C 38.136 267.160,38.602 269.590,38.837 270.800 C 39.073 272.010,39.723 273.895,40.283 274.990 C 40.843 276.084,41.971 278.964,42.789 281.390 C 44.340 285.989,46.684 291.601,48.055 294.000 C 48.495 294.770,49.496 296.750,50.280 298.400 C 51.064 300.050,52.197 302.030,52.797 302.800 C 53.398 303.570,54.248 305.010,54.687 306.000 C 55.695 308.275,59.704 314.741,60.762 315.800 C 61.202 316.240,62.013 317.451,62.565 318.490 C 64.985 323.054,68.049 326.393,69.800 326.376 C 71.770 326.356,72.730 325.791,77.373 321.914 C 78.088 321.317,79.142 320.650,79.716 320.432 C 80.289 320.214,81.081 319.533,81.477 318.918 C 82.472 317.369,86.835 313.022,88.022 312.396 C 88.560 312.113,89.581 311.208,90.292 310.386 C 93.620 306.537,98.325 306.225,100.200 309.731 C 100.698 310.661,101.378 311.310,102.000 311.447 C 104.751 312.055,106.267 313.024,109.490 316.232 C 111.377 318.111,113.748 320.089,114.760 320.628 C 115.772 321.167,117.590 322.325,118.800 323.202 C 120.010 324.078,121.900 325.337,123.000 325.998 C 124.100 326.659,125.270 327.365,125.600 327.567 C 125.930 327.769,126.825 328.167,127.590 328.453 C 128.354 328.738,129.947 329.759,131.129 330.723 C 132.312 331.686,133.937 332.744,134.740 333.073 C 135.543 333.402,137.010 334.179,138.000 334.800 C 138.990 335.420,141.138 336.321,142.773 336.803 C 145.723 337.671,147.060 338.319,148.600 339.628 C 149.040 340.001,151.110 340.796,153.200 341.393 C 155.290 341.990,157.637 342.888,158.416 343.389 C 159.194 343.890,162.479 344.962,165.715 345.772 C 168.950 346.582,172.386 347.593,173.350 348.019 C 174.313 348.445,177.329 349.155,180.051 349.596 C 182.773 350.037,187.430 350.880,190.400 351.468 C 195.460 352.469,196.506 352.538,207.000 352.551 C 223.750 352.573,232.559 351.092,240.000 347.003 C 240.770 346.580,241.490 346.221,241.600 346.206 C 243.240 345.983,243.049 345.219,241.400 345.404 C 236.684 345.932,234.903 346.455,234.452 347.445 C 234.029 348.374,233.893 348.399,229.509 348.354 C 227.029 348.328,225.315 348.225,225.700 348.124 C 226.085 348.024,226.400 347.775,226.400 347.571 C 226.400 347.367,226.651 347.200,226.957 347.200 C 227.264 347.200,227.618 346.930,227.745 346.600 C 227.871 346.270,228.251 346.000,228.587 346.000 C 228.924 346.000,229.201 345.775,229.202 345.500 C 229.204 345.225,229.458 344.514,229.768 343.920 C 230.253 342.992,230.252 342.775,229.766 342.371 C 229.332 342.012,229.200 342.013,229.200 342.375 C 229.200 342.635,229.008 342.729,228.773 342.584 C 228.539 342.439,228.448 342.219,228.571 342.096 C 228.694 341.973,228.436 341.620,227.997 341.313 C 227.559 341.006,227.200 340.442,227.200 340.061 C 227.200 339.679,226.390 338.572,225.400 337.600 C 223.683 335.915,223.600 335.728,223.600 333.549 L 223.600 331.264 221.100 329.035 C 219.725 327.810,217.561 326.253,216.291 325.575 C 213.800 324.246,213.154 323.503,212.241 320.916 C 210.800 316.833,209.258 315.298,203.680 312.397 C 199.846 310.403,198.339 309.803,197.851 310.075 C 196.979 310.563,196.540 310.242,195.623 308.445 C 195.018 307.260,194.493 306.837,193.129 306.437 C 192.178 306.158,190.500 305.330,189.400 304.597 C 188.300 303.864,186.770 303.140,186.000 302.988 C 185.230 302.836,184.330 302.480,184.000 302.198 C 183.670 301.916,182.140 301.618,180.600 301.535 C 178.606 301.427,177.262 301.098,175.932 300.392 C 171.249 297.906,169.426 297.067,161.153 293.589 C 159.697 292.977,157.736 291.991,156.795 291.397 C 154.152 289.728,150.987 288.804,146.422 288.368 C 144.124 288.149,141.514 287.800,140.622 287.594 C 139.730 287.388,137.988 287.215,136.750 287.210 C 135.110 287.203,134.018 286.930,132.718 286.204 C 131.738 285.656,128.970 284.692,126.568 284.061 C 121.880 282.831,120.814 282.248,111.122 275.606 C 108.549 273.843,106.345 272.400,106.225 272.400 C 104.527 272.400,91.382 258.914,89.919 255.672 C 88.964 253.553,87.791 252.048,84.249 248.400 C 81.762 245.839,79.396 243.002,78.911 242.000 C 78.432 241.010,77.030 238.040,75.796 235.400 C 74.561 232.760,73.176 230.201,72.718 229.713 C 72.166 229.125,71.824 228.115,71.702 226.713 C 71.458 223.885,69.862 219.478,68.148 216.895 C 67.379 215.737,66.390 213.937,65.949 212.895 C 65.509 211.853,64.994 210.640,64.805 210.200 C 64.389 209.229,63.985 207.478,63.747 205.606 C 63.649 204.840,63.336 203.850,63.050 203.406 C 62.765 202.963,62.030 201.250,61.417 199.600 C 60.804 197.950,59.957 195.880,59.535 195.000 C 58.809 193.486,57.938 190.367,55.403 180.200 C 54.799 177.780,54.031 175.279,53.697 174.643 C 52.731 172.809,52.847 169.446,53.921 168.112 C 57.542 163.613,57.051 160.834,52.600 160.635 C 51.940 160.605,51.167 160.435,50.882 160.256 C 50.588 160.071,50.114 160.139,49.782 160.415 C 49.357 160.768,49.058 160.780,48.670 160.458 C 48.284 160.138,48.014 160.146,47.670 160.490 C 47.310 160.850,47.200 160.573,47.200 159.304 C 47.200 158.393,47.380 157.536,47.600 157.400 C 47.820 157.264,48.000 156.883,48.000 156.553 C 48.000 156.201,47.809 156.071,47.538 156.238 C 47.250 156.416,47.185 156.348,47.366 156.055 C 47.525 155.798,47.853 155.709,48.096 155.859 C 48.375 156.032,48.446 155.898,48.290 155.491 C 48.155 155.140,48.258 154.781,48.518 154.694 C 48.867 154.578,48.839 154.232,48.408 153.368 C 48.088 152.726,47.752 152.040,47.661 151.844 C 47.569 151.645,47.739 151.635,48.048 151.821 C 48.503 152.095,48.501 152.032,48.036 151.459 C 47.541 150.848,47.575 150.693,48.325 150.167 C 49.408 149.409,50.151 146.892,50.833 141.666 C 51.326 137.887,51.461 137.486,52.400 137.000 C 52.966 136.707,53.638 136.048,53.894 135.534 C 54.457 134.404,55.600 130.935,55.600 130.355 C 55.600 130.126,56.095 129.439,56.700 128.829 C 57.305 128.219,58.129 126.773,58.532 125.616 C 58.934 124.459,59.961 122.757,60.813 121.832 C 62.295 120.225,63.501 117.999,62.890 118.001 C 62.731 118.001,62.105 118.784,61.501 119.742 M126.800 138.869 C 126.800 139.126,127.105 139.675,127.479 140.087 C 128.828 141.577,127.952 144.800,126.198 144.800 C 124.823 144.800,124.226 141.136,125.269 139.100 C 125.672 138.315,126.800 138.144,126.800 138.869 M130.636 146.605 C 130.656 146.822,131.000 147.720,131.400 148.600 C 132.181 150.318,132.269 151.491,131.661 152.099 C 130.994 152.766,132.430 154.788,133.221 154.294 C 133.719 153.983,134.080 154.069,134.686 154.641 C 135.129 155.058,137.406 157.092,139.746 159.160 C 142.086 161.227,144.000 163.069,144.000 163.252 C 144.000 163.434,145.080 164.776,146.401 166.233 C 147.721 167.690,149.083 169.476,149.428 170.202 C 149.936 171.272,153.000 172.796,153.000 171.978 C 153.000 171.925,153.810 172.289,154.800 172.787 C 158.292 174.545,158.919 175.746,156.544 176.132 C 155.279 176.337,154.019 176.190,150.151 175.387 C 149.600 175.272,149.221 174.805,149.071 174.057 C 148.866 173.029,148.522 172.802,145.920 171.974 C 142.563 170.906,142.000 170.567,142.000 169.611 C 142.000 167.518,138.238 164.043,135.287 163.412 C 134.294 163.199,133.806 162.773,133.287 161.665 C 132.839 160.710,132.064 159.938,131.060 159.448 C 129.244 158.561,129.218 156.930,130.998 155.530 C 132.267 154.532,132.264 154.081,130.986 153.761 C 130.335 153.597,129.769 153.021,129.406 152.153 C 129.095 151.409,128.641 150.800,128.396 150.800 C 127.929 150.800,128.155 148.308,128.699 147.453 C 128.858 147.204,129.013 146.865,129.044 146.700 C 129.075 146.535,129.123 146.297,129.150 146.171 C 129.234 145.785,130.598 146.184,130.636 146.605 M220.324 195.156 C 220.832 195.180,221.148 195.361,221.026 195.558 C 220.807 195.912,217.282 196.040,216.693 195.714 C 216.011 195.337,216.871 194.900,218.095 195.003 C 218.813 195.063,219.816 195.132,220.324 195.156 M322.058 247.738 C 321.089 248.770,321.176 249.337,322.635 251.489 L 323.509 252.777 324.554 251.197 C 325.810 249.299,325.803 249.409,324.773 247.962 C 323.771 246.555,323.213 246.509,322.058 247.738 M334.705 321.229 C 334.323 321.452,333.804 322.032,333.553 322.517 C 333.177 323.244,333.317 323.193,334.348 322.225 C 335.927 320.744,336.029 320.458,334.705 321.229 M328.479 329.000 C 327.102 330.650,325.841 332.000,325.677 332.000 C 325.512 332.000,324.423 333.085,323.255 334.412 L 321.132 336.823 322.431 336.594 C 324.575 336.217,328.425 332.344,329.449 329.535 C 329.915 328.254,330.522 326.935,330.798 326.603 C 331.073 326.271,331.227 326.000,331.140 326.000 C 331.053 326.000,329.856 327.350,328.479 329.000 M268.589 329.530 C 267.935 330.152,267.111 331.007,266.759 331.430 C 266.406 331.854,265.544 332.511,264.842 332.891 C 264.128 333.278,263.316 334.181,262.998 334.942 C 262.377 336.429,261.764 336.800,259.928 336.800 C 258.180 336.800,256.302 337.823,255.519 339.202 L 254.837 340.400 256.057 340.400 C 256.728 340.400,257.792 340.033,258.421 339.585 C 259.051 339.137,260.200 338.550,260.975 338.282 C 263.072 337.556,269.870 331.066,270.088 329.581 C 270.303 328.114,270.087 328.107,268.589 329.530 M231.929 338.284 C 230.120 338.561,229.028 340.967,230.103 342.308 C 230.855 343.244,236.301 341.220,236.385 339.974 C 236.401 339.734,233.394 337.958,233.146 338.060 C 233.065 338.093,232.518 338.194,231.929 338.284 " stroke="none" fill="#8c6c3f" fill-rule="evenodd"></path><path id="path3" d="M114.711 64.953 C 113.232 65.655,111.522 66.701,110.911 67.277 C 110.300 67.854,109.135 68.599,108.322 68.933 C 107.509 69.267,105.889 70.246,104.722 71.107 C 103.555 71.969,101.790 73.048,100.800 73.506 C 99.810 73.964,98.404 74.892,97.675 75.569 C 96.947 76.246,96.093 76.800,95.779 76.800 C 95.465 76.800,94.441 77.617,93.504 78.615 C 92.567 79.614,90.900 80.942,89.800 81.566 C 88.700 82.191,87.207 83.444,86.482 84.350 C 85.757 85.257,84.607 86.286,83.926 86.638 C 82.799 87.221,78.055 91.851,71.175 99.082 C 69.731 100.599,67.493 103.270,66.201 105.016 C 64.910 106.762,63.533 108.463,63.141 108.795 C 62.749 109.128,61.837 110.410,61.114 111.644 C 59.613 114.208,58.149 116.308,55.657 119.478 C 54.698 120.697,53.377 122.798,52.722 124.147 C 52.066 125.496,50.896 127.680,50.122 129.000 C 47.445 133.566,40.897 146.610,39.983 149.200 C 39.478 150.630,38.918 151.996,38.738 152.235 C 38.109 153.070,37.196 156.127,36.421 159.990 C 35.992 162.132,35.268 164.856,34.813 166.043 C 33.583 169.247,32.891 172.143,32.232 176.839 C 31.906 179.156,31.200 182.401,30.661 184.051 C 26.655 196.323,26.617 239.153,30.598 254.600 C 31.335 257.460,32.425 262.050,33.020 264.800 C 33.615 267.550,34.461 270.603,34.899 271.584 C 35.338 272.566,36.140 274.897,36.682 276.765 C 37.223 278.633,37.986 280.800,38.377 281.581 C 38.769 282.361,39.484 284.260,39.968 285.800 C 40.765 288.340,42.518 292.367,46.237 300.200 C 46.968 301.740,48.497 304.530,49.635 306.400 C 50.773 308.270,52.266 310.737,52.952 311.883 C 53.638 313.029,55.370 315.610,56.800 317.619 C 58.230 319.628,59.954 322.152,60.632 323.228 C 64.040 328.644,66.469 330.997,69.992 332.296 L 72.184 333.105 74.459 331.560 C 75.710 330.710,77.411 329.156,78.238 328.107 C 81.905 323.455,93.099 312.406,95.255 311.311 L 96.931 310.460 98.053 312.009 C 98.670 312.861,99.586 313.773,100.087 314.034 C 101.469 314.755,106.492 318.582,107.400 319.606 C 107.840 320.102,110.720 322.171,113.800 324.204 C 116.880 326.237,119.729 328.268,120.132 328.716 C 120.534 329.165,121.884 329.939,123.132 330.436 C 124.379 330.933,126.030 331.823,126.800 332.415 C 127.570 333.006,128.740 333.768,129.400 334.106 C 130.060 334.445,131.269 335.255,132.086 335.906 C 132.903 336.557,135.158 337.644,137.098 338.321 C 139.037 338.998,141.677 340.187,142.964 340.961 C 144.250 341.736,146.225 342.668,147.351 343.033 C 148.478 343.398,150.306 344.206,151.413 344.828 C 152.521 345.450,155.669 346.706,158.410 347.620 C 161.151 348.533,163.873 349.527,164.459 349.830 C 165.045 350.133,167.206 350.755,169.262 351.212 C 171.318 351.668,174.170 352.389,175.600 352.814 C 188.621 356.678,222.023 357.230,232.995 353.762 C 234.758 353.205,237.910 352.297,240.000 351.746 C 242.090 351.194,244.963 350.108,246.385 349.332 C 247.807 348.556,250.073 347.581,251.420 347.165 C 252.767 346.749,254.484 345.970,255.235 345.433 C 255.986 344.897,257.866 343.754,259.414 342.892 C 265.597 339.451,273.102 332.491,277.027 326.561 C 278.206 324.780,279.437 323.102,279.762 322.832 C 280.087 322.562,280.842 321.060,281.441 319.494 C 282.039 317.927,283.032 315.826,283.647 314.823 C 284.809 312.931,287.620 303.732,288.422 299.200 C 288.982 296.034,288.680 292.126,287.417 286.200 C 286.902 283.780,286.263 280.738,285.998 279.441 C 285.292 275.982,284.103 272.761,283.164 271.761 C 282.711 271.279,282.072 269.710,281.745 268.274 C 281.281 266.241,280.840 265.368,279.753 264.331 C 278.985 263.599,277.985 262.280,277.530 261.400 C 277.075 260.520,275.419 258.582,273.851 257.093 C 272.283 255.604,270.280 253.692,269.400 252.844 C 268.520 251.995,267.170 250.989,266.400 250.607 C 265.630 250.225,264.370 249.320,263.600 248.596 C 262.830 247.873,261.266 246.800,260.125 246.212 C 258.984 245.624,257.826 244.872,257.552 244.542 C 256.894 243.749,254.715 242.675,252.000 241.805 C 250.790 241.417,249.440 240.785,249.000 240.400 C 247.708 239.269,246.672 238.856,242.965 237.992 C 241.037 237.542,238.187 236.554,236.630 235.796 C 234.898 234.952,232.403 234.165,230.200 233.768 C 228.220 233.411,225.160 232.689,223.400 232.162 C 221.640 231.636,216.240 230.592,211.400 229.841 C 206.560 229.090,201.520 228.080,200.200 227.596 C 198.880 227.112,194.380 226.208,190.200 225.587 C 185.855 224.941,181.400 224.032,179.799 223.464 C 178.258 222.917,174.928 222.077,172.399 221.596 C 167.609 220.686,166.983 220.484,165.000 219.216 C 164.340 218.794,161.820 217.879,159.400 217.184 C 156.980 216.488,154.820 215.779,154.600 215.608 C 154.380 215.437,152.490 214.615,150.400 213.781 C 148.310 212.947,146.119 211.869,145.531 211.385 C 144.943 210.900,143.053 210.001,141.331 209.387 C 139.609 208.772,137.840 207.957,137.400 207.576 C 136.960 207.195,135.121 206.212,133.314 205.392 C 131.442 204.543,129.756 203.486,129.396 202.938 C 129.049 202.408,127.738 201.520,126.482 200.965 C 125.227 200.411,123.750 199.534,123.200 199.019 C 122.650 198.503,121.339 197.541,120.287 196.882 C 119.234 196.222,117.581 194.899,116.614 193.941 C 115.646 192.984,114.008 191.480,112.975 190.600 C 111.942 189.720,110.116 188.045,108.918 186.879 C 107.720 185.712,106.304 184.592,105.771 184.389 C 105.179 184.164,104.550 183.390,104.153 182.400 C 103.797 181.509,102.916 180.290,102.196 179.690 C 101.477 179.091,100.227 177.298,99.420 175.707 C 98.613 174.115,97.690 172.667,97.371 172.487 C 97.051 172.308,96.256 170.655,95.605 168.814 C 94.954 166.972,93.979 165.001,93.440 164.433 C 92.796 163.755,92.168 162.230,91.614 160.000 C 90.773 156.612,89.370 152.596,88.735 151.760 C 87.147 149.667,87.391 128.134,89.051 123.818 C 89.386 122.947,90.271 119.939,91.018 117.132 C 91.765 114.326,92.916 111.073,93.575 109.905 C 94.235 108.737,95.242 106.345,95.813 104.590 C 96.384 102.836,97.288 100.942,97.822 100.382 C 98.356 99.822,99.069 98.553,99.407 97.562 C 99.744 96.571,100.754 94.873,101.650 93.789 C 102.546 92.704,103.692 91.003,104.196 90.008 C 104.701 89.014,105.516 87.840,106.009 87.400 C 106.501 86.960,107.352 85.880,107.901 85.000 C 108.449 84.120,109.426 82.974,110.072 82.453 C 110.718 81.932,111.800 80.525,112.477 79.325 C 113.232 77.988,114.520 76.531,115.807 75.559 C 116.962 74.687,119.030 72.606,120.402 70.934 L 122.897 67.894 122.285 66.610 C 121.717 65.418,120.181 64.393,118.200 63.883 C 117.751 63.768,116.219 64.238,114.711 64.953 M120.300 66.496 C 120.795 66.960,121.200 67.540,121.200 67.785 C 121.200 68.719,115.989 73.917,114.220 74.749 C 113.213 75.222,112.012 76.201,111.506 76.961 C 111.008 77.710,109.083 80.185,107.229 82.462 C 105.375 84.738,103.490 87.230,103.041 88.000 C 102.592 88.770,100.959 91.080,99.412 93.133 C 95.119 98.833,94.536 99.822,93.765 102.718 C 93.358 104.249,92.665 105.768,92.152 106.257 C 91.384 106.988,89.200 112.916,89.200 114.270 C 89.200 114.505,88.766 116.029,88.235 117.655 C 84.808 128.152,84.890 150.337,88.379 157.163 C 88.875 158.133,89.552 159.843,89.885 160.963 C 90.518 163.099,92.024 166.304,93.190 168.000 C 93.568 168.550,94.091 169.627,94.351 170.394 C 94.944 172.141,100.692 180.784,101.456 181.077 C 101.767 181.196,102.475 182.068,103.029 183.014 C 103.584 183.960,104.794 185.370,105.719 186.146 C 106.643 186.923,108.480 188.575,109.800 189.818 C 111.120 191.061,112.740 192.452,113.400 192.908 C 114.060 193.364,115.436 194.562,116.458 195.569 C 119.206 198.278,121.079 199.684,124.200 201.381 C 125.740 202.218,127.630 203.481,128.400 204.188 C 129.170 204.894,130.610 205.954,131.600 206.542 C 132.590 207.131,133.670 207.778,134.000 207.980 C 134.330 208.182,136.940 209.453,139.800 210.806 C 142.660 212.158,146.530 214.031,148.400 214.968 C 150.343 215.941,153.685 217.146,156.200 217.781 C 158.620 218.392,161.908 219.515,163.507 220.277 C 165.106 221.039,167.855 222.007,169.615 222.427 C 171.375 222.848,173.498 223.540,174.333 223.966 C 175.167 224.391,178.956 225.392,182.751 226.190 C 186.547 226.987,190.115 227.815,190.679 228.030 C 192.382 228.678,194.791 229.124,199.000 229.571 C 201.200 229.805,206.330 230.711,210.400 231.586 C 214.470 232.460,220.651 233.629,224.136 234.185 C 228.498 234.880,231.083 235.501,232.430 236.178 C 233.507 236.718,236.236 237.647,238.494 238.242 C 240.752 238.837,244.040 239.994,245.800 240.814 C 247.560 241.633,249.450 242.438,250.000 242.603 C 252.160 243.250,253.331 243.954,263.632 250.800 C 268.227 253.854,275.226 260.522,276.600 263.157 C 277.260 264.422,278.291 266.087,278.892 266.856 C 279.493 267.625,280.238 268.963,280.548 269.827 C 280.857 270.692,281.868 273.020,282.794 275.000 C 287.273 284.578,287.187 302.269,282.614 312.006 C 281.396 314.598,280.400 316.877,280.400 317.071 C 280.400 318.769,275.528 325.341,271.272 329.384 C 268.715 331.813,265.667 334.717,264.496 335.838 C 263.326 336.958,261.791 338.053,261.085 338.270 C 260.378 338.487,257.852 339.956,255.471 341.534 C 249.875 345.243,250.137 345.116,245.433 346.409 C 243.215 347.019,240.717 347.812,239.883 348.172 C 239.048 348.531,236.647 349.179,234.547 349.611 C 232.447 350.043,230.556 350.504,230.344 350.635 C 226.975 352.717,199.592 353.288,190.400 351.468 C 187.430 350.880,182.773 350.037,180.051 349.596 C 177.329 349.155,174.313 348.445,173.350 348.019 C 172.386 347.593,168.950 346.582,165.715 345.772 C 162.479 344.962,159.194 343.890,158.416 343.389 C 157.637 342.888,155.290 341.990,153.200 341.393 C 151.110 340.796,149.040 340.001,148.600 339.628 C 147.060 338.319,145.723 337.671,142.773 336.803 C 141.138 336.321,138.990 335.420,138.000 334.800 C 137.010 334.179,135.543 333.402,134.740 333.073 C 133.937 332.744,132.312 331.686,131.129 330.723 C 129.947 329.759,128.354 328.738,127.590 328.453 C 126.825 328.167,125.930 327.769,125.600 327.567 C 125.270 327.365,124.100 326.659,123.000 325.998 C 121.900 325.337,120.010 324.078,118.800 323.202 C 117.590 322.325,115.772 321.167,114.760 320.628 C 113.748 320.089,111.377 318.111,109.490 316.232 C 106.267 313.024,104.751 312.055,102.000 311.447 C 101.378 311.310,100.698 310.661,100.200 309.731 C 98.325 306.225,93.620 306.537,90.292 310.386 C 89.581 311.208,88.560 312.113,88.022 312.396 C 86.835 313.022,82.472 317.369,81.477 318.918 C 81.081 319.533,80.273 320.220,79.680 320.446 C 78.153 321.026,77.202 321.986,77.187 322.962 C 77.169 324.136,76.339 325.100,75.072 325.418 C 74.387 325.590,73.904 326.041,73.751 326.655 C 73.322 328.361,70.776 328.645,70.166 327.054 C 70.046 326.744,69.465 326.385,68.874 326.257 C 67.746 326.013,63.995 321.350,62.403 318.213 C 61.960 317.340,61.230 316.260,60.780 315.813 C 59.711 314.750,55.707 308.301,54.687 306.000 C 54.248 305.010,53.398 303.570,52.797 302.800 C 52.197 302.030,51.064 300.050,50.280 298.400 C 49.496 296.750,48.495 294.770,48.055 294.000 C 46.684 291.601,44.340 285.989,42.789 281.390 C 41.971 278.964,40.843 276.084,40.283 274.990 C 39.723 273.895,39.073 272.010,38.837 270.800 C 38.602 269.590,38.136 267.160,37.802 265.400 C 37.468 263.640,36.659 261.120,36.003 259.800 C 35.072 257.926,34.673 256.303,34.181 252.400 C 33.314 245.517,32.491 240.427,31.584 236.340 C 30.538 231.626,30.313 207.880,31.293 205.600 C 31.624 204.830,32.011 202.469,32.152 200.354 C 32.293 198.238,32.770 194.548,33.211 192.154 C 33.653 189.759,34.196 186.090,34.420 184.000 C 34.946 179.083,35.470 176.493,36.688 172.802 C 37.232 171.151,38.014 167.958,38.426 165.706 C 38.837 163.454,39.428 161.114,39.740 160.506 C 40.052 159.898,40.880 157.510,41.580 155.200 C 42.280 152.890,43.652 149.416,44.627 147.479 C 45.602 145.542,46.400 143.723,46.400 143.435 C 46.400 143.147,46.840 142.263,47.378 141.470 C 47.916 140.677,49.012 138.537,49.812 136.714 C 50.613 134.891,51.632 133.061,52.076 132.646 C 52.520 132.231,53.493 130.611,54.237 129.046 C 54.982 127.481,56.178 125.258,56.896 124.106 C 59.655 119.677,64.106 112.964,64.790 112.200 C 65.184 111.760,65.783 110.860,66.121 110.200 C 66.459 109.540,67.425 108.269,68.268 107.375 C 69.110 106.481,70.604 104.591,71.587 103.175 C 73.850 99.914,89.039 84.749,91.832 82.962 C 92.987 82.223,94.323 81.070,94.801 80.398 C 95.279 79.727,96.509 78.749,97.535 78.226 C 99.264 77.343,102.646 74.882,106.000 72.065 C 106.770 71.419,108.120 70.480,109.000 69.978 C 109.880 69.477,111.050 68.666,111.600 68.176 C 114.954 65.189,118.229 64.556,120.300 66.496 M183.359 73.623 C 178.617 74.083,175.670 74.695,173.777 75.611 C 172.855 76.057,170.503 76.694,168.551 77.026 C 164.592 77.699,160.374 78.936,159.025 79.821 C 158.183 80.372,156.333 80.986,152.495 81.988 C 151.557 82.233,150.182 82.967,149.439 83.619 C 148.697 84.271,147.048 85.265,145.775 85.828 C 139.749 88.493,129.397 97.798,126.741 102.936 C 126.304 103.781,125.353 105.311,124.626 106.336 C 123.899 107.361,122.991 109.190,122.609 110.400 C 122.226 111.610,121.470 113.257,120.929 114.061 C 119.653 115.957,118.913 118.474,118.386 122.713 C 117.702 128.219,117.253 137.552,117.607 138.930 C 117.786 139.628,118.337 142.427,118.831 145.149 C 119.576 149.252,119.955 150.426,121.047 152.014 C 121.772 153.068,122.818 155.045,123.372 156.407 C 123.925 157.770,125.042 159.900,125.854 161.142 C 128.193 164.720,135.169 172.209,137.664 173.820 C 138.470 174.340,139.573 175.209,140.116 175.752 C 140.659 176.295,142.250 177.313,143.652 178.014 C 145.053 178.715,146.744 179.696,147.408 180.194 C 148.072 180.692,150.007 181.679,151.707 182.387 C 153.407 183.095,154.901 183.840,155.026 184.043 C 155.475 184.768,158.250 185.912,161.146 186.566 C 162.766 186.931,164.816 187.600,165.701 188.051 C 169.673 190.078,181.364 193.610,188.600 194.970 C 192.749 195.749,207.361 199.268,211.200 200.411 C 213.763 201.174,222.699 202.902,226.600 203.388 C 227.700 203.525,229.860 204.058,231.400 204.571 C 232.940 205.085,235.640 205.894,237.400 206.369 C 239.160 206.845,242.130 207.845,244.000 208.592 C 245.870 209.339,248.930 210.411,250.800 210.975 C 259.673 213.649,263.976 215.337,266.256 217.037 C 266.946 217.552,268.901 218.525,270.600 219.200 C 272.299 219.875,274.254 220.849,274.944 221.366 C 275.635 221.882,278.540 223.706,281.400 225.419 C 284.260 227.133,287.500 229.337,288.600 230.317 C 289.700 231.297,291.454 232.842,292.498 233.750 C 296.515 237.242,303.179 244.296,304.476 246.429 C 304.934 247.182,305.898 248.518,306.619 249.399 C 308.293 251.444,310.981 255.702,312.000 257.922 C 312.435 258.869,313.501 260.849,314.369 262.322 C 317.551 267.719,320.176 281.818,319.895 292.000 C 319.565 303.951,315.162 320.918,310.801 327.044 C 310.157 327.948,309.250 329.706,308.784 330.950 C 307.983 333.092,307.049 334.643,304.058 338.800 C 303.345 339.790,301.958 341.822,300.974 343.315 C 299.990 344.809,298.925 346.131,298.606 346.253 C 298.287 346.375,296.666 348.168,295.002 350.236 C 293.339 352.304,291.533 354.288,290.989 354.644 C 287.841 356.707,284.443 365.805,287.100 365.057 C 287.485 364.948,288.430 364.740,289.200 364.594 C 293.516 363.774,297.517 362.220,300.000 360.400 C 301.430 359.351,304.152 357.486,306.049 356.255 C 307.945 355.024,309.792 353.567,310.152 353.017 C 310.513 352.467,311.391 351.717,312.104 351.351 C 313.684 350.540,322.570 342.557,325.600 339.226 C 326.810 337.896,329.330 335.205,331.200 333.247 C 334.465 329.828,335.883 328.092,338.688 324.085 C 339.397 323.073,340.237 322.099,340.554 321.922 C 340.872 321.744,341.761 320.474,342.530 319.099 C 343.299 317.725,344.490 315.893,345.177 315.029 C 345.863 314.165,346.755 312.725,347.158 311.829 C 347.561 310.933,348.381 309.750,348.979 309.200 C 349.973 308.286,352.000 304.519,352.000 303.586 C 352.000 303.371,352.476 302.791,353.058 302.297 C 353.640 301.804,354.821 299.890,355.681 298.043 C 356.542 296.197,357.663 294.127,358.172 293.443 C 358.682 292.760,359.482 291.157,359.951 289.882 C 360.419 288.606,361.178 286.828,361.636 285.930 C 362.583 284.074,364.800 277.540,364.800 276.605 C 364.800 276.266,365.423 275.045,366.185 273.894 C 367.492 271.918,368.769 267.875,368.804 265.600 C 368.812 265.050,369.286 263.520,369.857 262.200 C 371.871 257.540,372.428 255.513,372.813 251.451 C 373.070 248.740,373.550 246.472,374.227 244.773 C 378.171 234.872,377.881 191.506,373.806 181.753 C 373.478 180.967,372.944 178.677,372.620 176.663 C 371.972 172.637,370.216 165.550,369.565 164.335 C 369.338 163.910,368.996 162.605,368.805 161.434 C 368.195 157.686,367.611 156.075,366.178 154.198 C 365.128 152.823,364.573 151.474,363.959 148.806 C 363.303 145.958,362.876 144.968,361.819 143.847 C 361.055 143.037,360.379 141.812,360.216 140.942 C 359.869 139.093,358.617 136.536,357.404 135.200 C 356.905 134.650,356.276 133.480,356.006 132.600 C 355.465 130.831,353.761 127.968,352.971 127.498 C 352.691 127.331,352.156 126.272,351.781 125.143 C 351.406 124.015,350.520 122.441,349.812 121.646 C 349.104 120.850,347.769 118.895,346.845 117.300 C 345.921 115.705,344.986 114.400,344.768 114.400 C 344.550 114.400,344.031 113.605,343.614 112.633 C 343.198 111.661,342.286 110.446,341.589 109.933 C 340.892 109.420,340.064 108.502,339.748 107.894 C 338.759 105.991,334.498 100.540,333.064 99.343 C 332.310 98.715,331.263 97.570,330.738 96.800 C 329.492 94.973,322.323 88.050,317.945 84.447 C 315.850 82.722,312.369 81.962,310.684 82.861 C 309.124 83.693,305.990 86.558,305.120 87.948 C 304.656 88.689,303.386 90.309,302.299 91.548 C 301.212 92.786,299.990 94.448,299.584 95.239 C 299.178 96.030,298.406 96.966,297.869 97.318 C 297.331 97.670,296.490 98.787,296.000 99.800 C 295.510 100.813,294.697 101.911,294.194 102.240 C 293.692 102.570,292.810 103.551,292.234 104.420 C 290.835 106.535,287.081 106.550,285.283 104.448 C 284.907 104.009,283.725 103.171,282.655 102.586 C 281.585 102.002,279.614 100.641,278.275 99.562 C 276.936 98.483,275.607 97.600,275.321 97.600 C 275.036 97.600,274.119 96.982,273.283 96.227 C 272.447 95.472,270.513 94.384,268.984 93.808 C 267.455 93.233,265.753 92.332,265.202 91.807 C 264.651 91.281,262.850 90.362,261.200 89.765 C 259.550 89.167,257.840 88.357,257.400 87.966 C 256.390 87.066,255.212 86.622,251.157 85.613 C 248.926 85.058,247.499 84.443,246.590 83.645 C 245.105 82.341,243.847 81.885,239.800 81.182 C 238.208 80.906,235.617 80.023,233.796 79.138 C 231.015 77.785,229.907 77.496,225.396 76.947 C 222.538 76.599,219.742 76.078,219.182 75.789 C 214.835 73.548,195.926 72.405,183.359 73.623 M211.400 75.928 C 213.160 76.389,217.902 77.211,221.938 77.754 C 227.676 78.527,229.725 78.967,231.338 79.773 C 232.826 80.517,241.325 82.800,242.606 82.800 C 242.652 82.800,243.341 83.318,244.137 83.950 C 244.934 84.583,247.163 85.600,249.092 86.210 C 251.022 86.820,253.349 87.740,254.265 88.256 C 255.181 88.771,257.272 89.709,258.913 90.341 C 260.553 90.973,262.709 92.049,263.702 92.733 C 264.696 93.416,266.460 94.351,267.622 94.809 C 268.784 95.267,270.199 95.969,270.767 96.369 C 271.335 96.770,272.700 97.551,273.800 98.105 C 274.900 98.660,276.160 99.519,276.600 100.014 C 277.040 100.509,278.655 101.723,280.189 102.711 C 281.722 103.700,283.740 105.146,284.672 105.925 C 285.604 106.704,287.357 107.648,288.567 108.022 L 290.766 108.703 293.106 106.252 C 294.393 104.903,296.046 102.900,296.779 101.800 C 297.512 100.700,298.322 99.620,298.579 99.400 C 299.431 98.670,303.178 93.659,305.228 90.507 C 308.699 85.170,310.520 83.600,313.240 83.600 L 315.510 83.600 320.004 87.857 C 322.475 90.198,326.356 94.089,328.627 96.504 C 330.898 98.918,333.123 101.151,333.572 101.465 C 334.021 101.780,334.858 102.839,335.432 103.818 C 336.006 104.798,336.643 105.600,336.847 105.600 C 337.051 105.600,337.755 106.455,338.412 107.500 C 339.069 108.545,340.246 110.120,341.028 111.000 C 342.656 112.832,346.290 118.232,347.528 120.659 C 347.989 121.562,348.634 122.404,348.961 122.530 C 349.289 122.656,350.295 124.282,351.196 126.145 C 352.098 128.007,353.128 129.772,353.485 130.066 C 353.843 130.360,354.651 131.736,355.282 133.124 C 355.913 134.512,356.968 136.391,357.625 137.298 C 358.283 138.206,359.102 139.950,359.445 141.174 C 359.788 142.399,360.661 144.390,361.386 145.600 C 362.110 146.810,363.189 149.510,363.783 151.600 C 364.377 153.690,365.200 155.762,365.613 156.205 C 366.850 157.536,367.553 159.709,368.374 164.736 C 368.802 167.363,369.599 170.572,370.144 171.867 C 371.201 174.378,372.096 178.534,372.800 184.199 C 373.038 186.117,373.669 189.488,374.203 191.690 C 376.675 201.900,376.557 227.111,373.993 236.659 C 373.571 238.231,372.760 242.371,372.191 245.859 C 371.371 250.882,370.875 252.782,369.804 255.000 C 368.933 256.803,368.164 259.338,367.646 262.118 C 367.120 264.942,366.297 267.641,365.267 269.918 C 364.402 271.833,363.479 274.300,363.217 275.400 C 362.956 276.500,362.056 278.660,361.218 280.200 C 360.380 281.740,359.477 283.937,359.212 285.083 C 358.946 286.229,358.107 288.198,357.347 289.459 C 356.588 290.721,355.469 292.933,354.862 294.376 C 354.254 295.819,353.092 297.965,352.278 299.145 C 351.465 300.325,350.798 301.495,350.796 301.745 C 350.788 302.706,348.854 306.258,347.676 307.474 C 346.998 308.175,346.049 309.525,345.569 310.474 C 345.088 311.423,344.133 312.843,343.447 313.630 C 342.761 314.416,341.709 315.856,341.109 316.830 C 340.509 317.803,338.840 319.950,337.400 321.600 C 335.960 323.250,334.253 325.388,333.608 326.352 C 332.962 327.315,331.796 328.536,331.017 329.066 C 330.238 329.596,329.600 330.176,329.600 330.355 C 329.600 330.534,327.800 332.553,325.601 334.841 C 323.401 337.128,320.410 340.242,318.954 341.759 C 317.497 343.277,314.482 345.879,312.253 347.542 C 310.024 349.205,307.094 351.500,305.742 352.642 C 304.390 353.785,302.905 354.840,302.442 354.987 C 301.978 355.134,301.430 355.570,301.223 355.956 C 301.017 356.342,300.072 357.173,299.124 357.802 C 298.176 358.431,296.950 359.459,296.400 360.086 C 294.824 361.882,290.930 362.681,289.693 361.462 L 288.786 360.568 290.582 358.465 C 291.570 357.308,293.283 355.646,294.389 354.771 C 295.495 353.897,296.400 353.023,296.400 352.830 C 296.400 352.636,298.151 350.724,300.291 348.581 C 304.739 344.125,307.387 340.616,309.331 336.600 C 310.077 335.060,311.146 333.313,311.708 332.717 C 312.270 332.122,313.088 330.682,313.526 329.517 C 313.963 328.353,314.964 326.267,315.750 324.881 C 323.108 311.904,325.707 280.306,320.387 268.516 C 319.911 267.462,319.018 265.111,318.402 263.291 C 317.785 261.471,316.808 259.361,316.229 258.602 C 315.650 257.844,314.669 256.093,314.049 254.712 C 313.428 253.330,312.481 251.660,311.943 251.000 C 311.406 250.340,310.628 249.260,310.215 248.600 C 309.484 247.432,308.071 245.650,305.187 242.260 C 304.410 241.347,303.283 239.880,302.682 239.000 C 302.082 238.120,301.008 236.966,300.295 236.435 C 299.583 235.904,298.190 234.502,297.200 233.320 C 295.269 231.013,290.428 226.858,288.053 225.467 C 287.254 224.999,286.198 224.219,285.706 223.732 C 285.214 223.246,283.890 222.385,282.764 221.820 C 281.638 221.254,279.990 220.169,279.102 219.409 C 278.214 218.649,276.568 217.732,275.444 217.371 C 274.320 217.010,272.770 216.316,272.000 215.828 C 271.230 215.339,269.520 214.443,268.200 213.836 C 265.524 212.604,265.345 212.506,263.869 211.462 C 263.295 211.056,260.719 210.118,258.146 209.376 C 255.572 208.634,252.901 207.759,252.210 207.432 C 251.519 207.104,249.435 206.357,247.577 205.772 C 245.720 205.186,242.760 204.120,241.000 203.401 C 239.240 202.682,236.900 201.969,235.800 201.816 C 234.700 201.662,232.450 201.210,230.800 200.811 C 222.865 198.892,218.733 198.005,215.800 197.592 C 211.834 197.034,208.598 196.228,206.201 195.200 C 205.190 194.767,202.167 194.045,199.482 193.596 C 196.797 193.147,192.710 192.260,190.400 191.625 C 188.090 190.990,184.940 190.267,183.400 190.019 C 179.286 189.355,174.989 188.120,172.870 186.992 C 171.845 186.446,170.803 186.000,170.555 186.000 C 169.399 186.000,161.767 183.547,159.327 182.392 C 157.827 181.681,155.894 180.850,155.032 180.544 C 154.170 180.238,152.518 179.360,151.362 178.593 C 150.207 177.825,148.481 176.863,147.527 176.455 C 146.574 176.046,145.255 175.262,144.597 174.712 C 143.939 174.162,142.845 173.428,142.168 173.081 C 141.490 172.734,139.765 171.403,138.336 170.125 C 136.906 168.846,135.300 167.413,134.768 166.940 C 131.874 164.369,129.525 161.483,128.260 158.947 C 127.478 157.379,126.600 155.849,126.310 155.547 C 125.774 154.992,124.728 152.532,122.424 146.407 C 119.581 138.850,119.751 124.904,122.760 118.915 C 123.621 117.202,124.704 114.640,125.167 113.222 C 125.870 111.065,127.323 108.390,129.765 104.752 C 132.686 100.401,133.950 98.783,135.347 97.603 C 136.256 96.835,138.264 95.035,139.810 93.603 C 141.355 92.171,144.289 90.010,146.330 88.800 C 148.370 87.590,150.964 86.005,152.094 85.277 C 153.223 84.550,155.931 83.438,158.111 82.806 C 160.291 82.174,162.733 81.204,163.537 80.650 C 165.190 79.511,166.123 79.259,174.800 77.612 C 178.210 76.965,182.080 76.226,183.400 75.971 C 190.198 74.657,206.446 74.632,211.400 75.928 " stroke="none" fill="#5f5c47" fill-rule="evenodd"></path><path id="path4" d="M114.995 66.089 C 113.678 66.747,112.150 67.686,111.600 68.176 C 111.050 68.666,109.880 69.477,109.000 69.978 C 108.120 70.480,106.770 71.419,106.000 72.065 C 102.646 74.882,99.264 77.343,97.535 78.226 C 96.509 78.749,95.279 79.727,94.801 80.398 C 94.323 81.070,92.987 82.223,91.832 82.962 C 89.039 84.749,73.850 99.914,71.587 103.175 C 70.604 104.591,69.110 106.481,68.267 107.375 C 67.423 108.269,66.391 109.663,65.972 110.473 C 65.554 111.283,65.051 112.045,64.855 112.166 C 64.658 112.288,63.159 114.415,61.522 116.893 C 58.143 122.011,55.886 125.927,57.138 124.500 C 57.573 124.005,58.034 123.600,58.164 123.600 C 58.577 123.600,59.835 122.185,61.219 120.162 C 61.958 119.083,62.779 117.978,63.045 117.707 C 63.311 117.436,63.852 116.356,64.247 115.307 C 65.744 111.333,67.499 108.921,70.580 106.602 C 72.208 105.377,74.110 103.706,74.807 102.888 C 77.397 99.849,79.448 97.529,81.131 95.735 C 82.083 94.721,83.020 93.474,83.213 92.965 C 83.407 92.455,84.139 91.742,84.840 91.380 C 85.540 91.017,87.617 89.218,89.454 87.381 C 91.291 85.544,93.380 83.759,94.097 83.416 C 94.814 83.072,95.792 82.186,96.270 81.446 C 96.772 80.671,97.619 79.984,98.270 79.823 C 99.995 79.399,102.719 77.687,102.980 76.863 C 103.292 75.879,104.566 75.299,107.098 74.985 C 109.809 74.650,110.284 75.443,108.498 77.326 C 107.833 78.027,107.003 79.169,106.653 79.865 C 106.302 80.560,105.484 81.550,104.833 82.065 C 103.279 83.293,99.103 89.420,97.789 92.400 C 97.449 93.170,96.930 94.250,96.634 94.800 C 96.339 95.350,95.979 96.309,95.833 96.932 L 95.569 98.063 96.697 96.732 C 98.363 94.765,102.113 89.608,103.045 88.000 C 103.492 87.230,105.375 84.738,107.229 82.462 C 109.083 80.185,111.008 77.710,111.506 76.961 C 112.012 76.201,113.213 75.222,114.220 74.749 C 115.989 73.917,121.200 68.719,121.200 67.785 C 121.200 67.163,119.599 65.729,118.395 65.273 C 117.589 64.967,116.915 65.129,114.995 66.089 M113.600 72.000 C 113.600 72.220,113.195 72.397,112.700 72.394 C 111.972 72.389,111.915 72.314,112.400 72.000 C 113.176 71.499,113.600 71.499,113.600 72.000 M191.400 75.197 C 188.320 75.367,184.720 75.716,183.400 75.971 C 182.080 76.226,178.210 76.965,174.800 77.612 C 166.123 79.259,165.190 79.511,163.537 80.650 C 162.733 81.204,160.213 82.197,157.938 82.856 C 155.664 83.515,153.532 84.298,153.201 84.594 C 152.871 84.891,151.301 85.868,149.714 86.766 C 145.856 88.947,141.104 92.037,141.302 92.235 C 141.568 92.501,146.560 90.697,147.127 90.130 C 147.419 89.838,147.901 89.600,148.200 89.600 C 148.499 89.600,148.995 89.348,149.304 89.039 C 149.612 88.731,151.200 87.811,152.832 86.995 C 154.465 86.179,156.070 85.280,156.400 84.997 C 157.046 84.443,162.574 82.800,163.790 82.800 C 164.197 82.800,165.369 82.261,166.395 81.603 C 174.956 76.110,218.990 75.938,229.523 81.358 C 230.116 81.662,232.531 82.294,234.891 82.762 C 239.870 83.750,240.536 83.973,242.541 85.334 C 243.359 85.890,245.508 86.834,247.315 87.434 C 249.122 88.033,250.960 88.754,251.400 89.036 C 251.840 89.318,253.730 90.164,255.600 90.916 C 257.470 91.669,260.612 93.210,262.583 94.342 C 264.554 95.474,266.340 96.400,266.552 96.400 C 266.764 96.400,267.221 96.653,267.569 96.962 C 267.916 97.271,269.665 98.270,271.455 99.181 C 273.246 100.092,275.046 101.216,275.455 101.677 C 275.865 102.139,277.100 103.118,278.200 103.852 C 286.009 109.063,287.550 109.994,289.077 110.422 L 290.794 110.902 293.018 109.003 C 294.240 107.958,296.133 105.820,297.223 104.252 C 298.313 102.683,299.923 100.500,300.801 99.400 C 301.679 98.300,303.162 96.357,304.098 95.083 C 312.054 84.250,313.433 84.246,324.182 95.032 C 328.823 99.688,336.704 108.408,337.420 109.678 C 337.651 110.088,338.517 111.183,339.344 112.111 C 340.171 113.040,342.460 116.266,344.431 119.281 C 346.401 122.295,348.196 124.874,348.418 125.011 C 348.641 125.149,349.627 126.912,350.611 128.931 C 352.602 133.014,355.243 137.767,356.874 140.200 C 357.463 141.080,358.333 142.963,358.806 144.385 C 359.279 145.806,360.083 147.696,360.593 148.585 C 361.104 149.473,362.008 151.820,362.603 153.800 C 363.198 155.780,364.188 158.511,364.803 159.869 C 365.911 162.315,366.864 165.955,367.398 169.784 C 367.550 170.876,368.010 172.676,368.421 173.784 C 371.220 181.341,374.385 209.451,373.603 219.800 C 372.837 229.925,370.274 247.687,369.130 250.800 C 368.078 253.660,366.974 258.236,366.426 262.000 C 366.140 263.971,365.528 265.892,364.642 267.600 C 363.900 269.030,362.893 271.550,362.405 273.200 C 361.916 274.850,360.926 277.280,360.206 278.600 C 359.485 279.920,358.512 282.293,358.044 283.873 C 357.576 285.454,356.748 287.275,356.205 287.922 C 355.189 289.128,353.931 291.769,353.461 293.678 C 353.315 294.271,352.473 295.591,351.590 296.611 C 350.526 297.841,349.763 299.264,349.326 300.836 C 348.826 302.633,348.344 303.453,347.330 304.226 C 346.594 304.787,345.610 305.997,345.142 306.914 C 344.674 307.831,343.595 309.524,342.743 310.676 C 341.892 311.829,340.980 313.273,340.715 313.886 C 340.451 314.499,339.552 315.761,338.717 316.691 C 337.883 317.621,337.200 318.596,337.200 318.857 C 337.200 319.118,336.165 320.436,334.900 321.786 C 331.216 325.717,330.327 326.972,329.435 329.500 L 328.840 331.186 330.233 329.793 C 331.000 329.027,331.774 328.400,331.954 328.400 C 332.133 328.400,332.841 327.545,333.527 326.500 C 334.213 325.455,335.954 323.250,337.396 321.600 C 338.838 319.950,340.509 317.803,341.109 316.830 C 341.709 315.856,342.761 314.416,343.447 313.630 C 344.133 312.843,345.088 311.423,345.569 310.474 C 346.049 309.525,346.998 308.175,347.676 307.474 C 348.854 306.258,350.788 302.706,350.796 301.745 C 350.798 301.495,351.465 300.325,352.278 299.145 C 353.092 297.965,354.254 295.819,354.862 294.376 C 355.469 292.933,356.588 290.721,357.347 289.459 C 358.107 288.198,358.946 286.229,359.212 285.083 C 359.477 283.937,360.380 281.740,361.218 280.200 C 362.056 278.660,362.956 276.500,363.217 275.400 C 363.479 274.300,364.402 271.833,365.267 269.918 C 366.297 267.641,367.120 264.942,367.646 262.118 C 368.164 259.338,368.933 256.803,369.804 255.000 C 370.875 252.782,371.371 250.882,372.191 245.859 C 372.760 242.371,373.571 238.231,373.993 236.659 C 376.557 227.111,376.675 201.900,374.203 191.690 C 373.669 189.488,373.038 186.117,372.800 184.199 C 372.096 178.534,371.201 174.378,370.144 171.867 C 369.599 170.572,368.802 167.363,368.374 164.736 C 367.553 159.709,366.850 157.536,365.613 156.205 C 365.200 155.762,364.377 153.690,363.783 151.600 C 363.189 149.510,362.110 146.810,361.386 145.600 C 360.661 144.390,359.788 142.399,359.445 141.174 C 359.102 139.950,358.283 138.206,357.625 137.298 C 356.968 136.391,355.913 134.512,355.282 133.124 C 354.651 131.736,353.843 130.360,353.485 130.066 C 353.128 129.772,352.098 128.007,351.196 126.145 C 350.295 124.282,349.289 122.656,348.961 122.530 C 348.634 122.404,347.989 121.562,347.528 120.659 C 346.290 118.232,342.656 112.832,341.028 111.000 C 340.246 110.120,339.069 108.545,338.412 107.500 C 337.755 106.455,337.051 105.600,336.847 105.600 C 336.643 105.600,336.006 104.798,335.432 103.818 C 334.858 102.839,334.021 101.780,333.572 101.465 C 333.123 101.151,330.898 98.918,328.627 96.504 C 326.356 94.089,322.475 90.198,320.004 87.857 L 315.510 83.600 313.240 83.600 C 310.520 83.600,308.699 85.170,305.228 90.507 C 303.178 93.659,299.431 98.670,298.579 99.400 C 298.322 99.620,297.512 100.700,296.779 101.800 C 296.046 102.900,294.393 104.903,293.106 106.252 L 290.766 108.703 288.567 108.022 C 287.357 107.648,285.604 106.704,284.672 105.925 C 283.740 105.146,281.722 103.700,280.189 102.711 C 278.655 101.723,277.040 100.509,276.600 100.014 C 276.160 99.519,274.900 98.660,273.800 98.105 C 272.700 97.551,271.335 96.770,270.767 96.369 C 270.199 95.969,268.784 95.267,267.622 94.809 C 266.460 94.351,264.696 93.416,263.702 92.733 C 262.709 92.049,260.553 90.973,258.913 90.341 C 257.272 89.709,255.181 88.771,254.265 88.256 C 253.349 87.740,251.022 86.820,249.092 86.210 C 247.163 85.600,244.934 84.583,244.137 83.950 C 243.341 83.318,242.652 82.800,242.606 82.800 C 241.325 82.800,232.826 80.517,231.338 79.773 C 229.725 78.967,227.676 78.527,221.938 77.754 C 217.902 77.211,213.160 76.389,211.400 75.928 C 207.695 74.959,200.465 74.694,191.400 75.197 M92.657 104.250 C 91.987 105.654,92.049 106.534,92.765 105.773 C 93.134 105.381,93.777 102.800,93.506 102.800 C 93.419 102.800,93.037 103.452,92.657 104.250 M89.666 110.300 C 89.284 111.125,88.330 112.790,87.545 114.000 C 85.905 116.527,85.350 118.590,84.799 124.200 C 84.583 126.400,84.107 130.391,83.740 133.068 C 83.092 137.803,83.097 138.077,83.918 143.068 C 84.382 145.891,84.868 149.319,84.999 150.686 C 85.329 154.137,86.182 157.196,87.749 160.545 C 88.484 162.115,89.383 164.210,89.747 165.200 C 90.111 166.190,90.852 167.720,91.395 168.600 C 91.937 169.480,92.935 171.363,93.612 172.785 C 94.289 174.207,95.425 176.097,96.136 176.985 C 96.847 177.873,97.767 179.140,98.181 179.800 C 100.086 182.839,109.690 193.090,111.937 194.482 C 112.673 194.938,114.551 196.558,116.111 198.081 C 117.671 199.604,120.219 201.584,121.774 202.480 C 123.328 203.376,125.224 204.579,125.986 205.154 C 129.484 207.794,136.639 211.753,143.469 214.829 C 145.266 215.638,147.254 216.669,147.885 217.118 C 148.516 217.568,150.285 218.321,151.816 218.791 C 153.347 219.262,156.220 220.263,158.200 221.017 C 160.180 221.770,163.420 222.860,165.400 223.440 C 167.380 224.019,170.092 224.914,171.427 225.430 C 172.762 225.945,176.452 226.825,179.627 227.385 C 182.802 227.945,186.540 228.762,187.934 229.201 C 189.327 229.640,193.818 230.543,197.913 231.208 C 202.008 231.873,206.486 232.765,207.865 233.191 C 209.244 233.617,212.944 234.327,216.086 234.768 C 222.333 235.645,228.194 236.848,229.421 237.504 C 229.851 237.734,232.597 238.571,235.523 239.364 C 238.449 240.157,241.559 241.171,242.435 241.618 C 243.311 242.065,245.436 242.949,247.157 243.584 C 250.304 244.745,256.755 248.133,258.996 249.803 C 259.658 250.296,260.879 251.015,261.709 251.400 C 262.539 251.785,265.567 254.237,268.438 256.850 C 271.309 259.462,273.792 261.600,273.956 261.600 C 274.119 261.600,274.671 262.609,275.183 263.843 C 275.694 265.077,276.704 266.966,277.428 268.041 C 278.151 269.116,279.383 271.979,280.166 274.403 C 280.948 276.827,281.854 279.215,282.178 279.710 C 285.469 284.732,284.982 302.711,281.353 310.231 C 280.389 312.228,279.597 314.118,279.593 314.431 C 279.590 314.744,278.510 316.887,277.193 319.194 C 275.877 321.500,274.800 323.501,274.800 323.641 C 274.800 323.780,274.084 324.368,273.208 324.947 C 271.667 325.967,270.000 328.494,270.000 329.811 C 270.000 332.122,278.836 321.404,280.232 317.400 C 280.385 316.960,281.482 314.506,282.669 311.947 C 287.184 302.211,287.244 284.516,282.794 275.000 C 281.868 273.020,280.857 270.692,280.548 269.827 C 280.238 268.963,279.493 267.625,278.892 266.856 C 278.291 266.087,277.260 264.422,276.600 263.157 C 275.226 260.522,268.227 253.854,263.632 250.800 C 253.331 243.954,252.160 243.250,250.000 242.603 C 249.450 242.438,247.560 241.633,245.800 240.814 C 244.040 239.994,240.752 238.837,238.494 238.242 C 236.236 237.647,233.507 236.718,232.430 236.178 C 231.083 235.501,228.498 234.880,224.136 234.185 C 220.651 233.629,214.470 232.460,210.400 231.586 C 206.330 230.711,201.200 229.805,199.000 229.571 C 194.791 229.124,192.382 228.678,190.679 228.030 C 190.115 227.815,186.547 226.987,182.751 226.190 C 178.956 225.392,175.167 224.391,174.333 223.966 C 173.498 223.540,171.375 222.848,169.615 222.427 C 167.855 222.007,165.106 221.039,163.507 220.277 C 161.908 219.515,158.620 218.392,156.200 217.781 C 153.685 217.146,150.343 215.941,148.400 214.968 C 146.530 214.031,142.660 212.158,139.800 210.806 C 136.940 209.453,134.330 208.182,134.000 207.980 C 133.670 207.778,132.590 207.131,131.600 206.542 C 130.610 205.954,129.170 204.894,128.400 204.188 C 127.630 203.481,125.740 202.218,124.200 201.381 C 121.079 199.684,119.206 198.278,116.458 195.569 C 115.436 194.562,114.060 193.364,113.400 192.908 C 112.740 192.452,111.120 191.061,109.800 189.818 C 108.480 188.575,106.643 186.923,105.719 186.146 C 104.794 185.370,103.584 183.960,103.029 183.014 C 102.475 182.068,101.767 181.196,101.456 181.077 C 100.692 180.784,94.944 172.141,94.351 170.394 C 94.091 169.627,93.568 168.550,93.190 168.000 C 92.024 166.304,90.518 163.099,89.885 160.963 C 89.552 159.843,88.875 158.133,88.379 157.163 C 84.910 150.377,84.805 128.688,88.187 117.632 C 90.590 109.779,91.117 107.168,89.666 110.300 M52.145 132.527 C 51.424 133.279,48.800 138.455,48.800 139.125 C 48.800 139.872,50.888 137.154,51.972 134.995 C 53.399 132.156,53.470 131.145,52.145 132.527 M76.200 322.900 C 75.760 323.147,74.860 323.859,74.200 324.482 C 73.540 325.104,72.320 325.821,71.489 326.073 C 69.837 326.576,69.748 327.141,71.206 327.874 C 72.389 328.469,73.420 327.970,73.754 326.642 C 73.919 325.984,74.373 325.582,75.142 325.413 C 75.771 325.275,76.512 324.738,76.789 324.220 C 77.481 322.927,77.214 322.329,76.200 322.900 M313.634 329.195 C 313.150 330.522,312.289 332.102,311.720 332.704 C 311.152 333.307,310.077 335.060,309.331 336.600 C 307.387 340.616,304.739 344.125,300.291 348.581 C 298.151 350.724,296.400 352.636,296.400 352.830 C 296.400 353.023,295.495 353.897,294.389 354.771 C 293.283 355.646,291.570 357.308,290.582 358.465 L 288.786 360.568 289.693 361.462 C 290.930 362.681,294.824 361.882,296.400 360.086 C 296.950 359.459,298.176 358.431,299.124 357.802 C 300.072 357.173,301.017 356.342,301.223 355.956 C 301.430 355.570,301.978 355.134,302.442 354.987 C 302.905 354.840,304.390 353.785,305.742 352.642 C 307.094 351.500,310.000 349.219,312.200 347.575 C 314.400 345.930,317.280 343.483,318.600 342.137 C 322.562 338.097,324.626 335.868,324.166 336.124 C 323.928 336.257,323.127 336.472,322.386 336.602 C 320.984 336.850,318.962 338.427,314.277 342.930 C 312.667 344.476,311.057 345.656,310.339 345.813 C 309.542 345.988,308.851 346.546,308.323 347.440 C 307.667 348.552,307.279 348.800,306.193 348.800 C 303.928 348.800,303.320 348.365,304.747 347.766 C 305.731 347.352,306.069 346.880,306.442 345.398 C 306.744 344.198,307.260 343.317,307.910 342.891 C 308.868 342.263,311.199 337.990,311.200 336.860 C 311.200 336.564,311.740 335.817,312.400 335.200 C 313.356 334.307,313.600 333.745,313.600 332.440 C 313.600 331.538,313.607 330.713,313.616 330.606 C 313.624 330.499,313.896 329.661,314.220 328.743 C 314.544 327.826,314.742 327.009,314.661 326.928 C 314.580 326.847,314.118 327.867,313.634 329.195 M254.000 340.800 C 253.670 341.013,253.023 341.191,252.562 341.194 C 252.101 341.197,250.597 341.928,249.220 342.818 C 247.843 343.709,246.150 344.544,245.458 344.676 C 244.766 344.807,243.660 345.196,243.000 345.540 C 242.340 345.885,241.710 346.182,241.600 346.200 C 241.490 346.218,240.770 346.580,240.000 347.004 C 239.230 347.428,237.970 348.081,237.200 348.455 C 235.018 349.515,236.879 349.351,239.732 348.231 C 241.089 347.699,243.640 346.881,245.400 346.414 C 249.397 345.355,256.800 341.545,256.800 340.548 C 256.800 340.232,254.568 340.433,254.000 340.800 " stroke="none" fill="#60706c" fill-rule="evenodd"></path></g></svg>